<?xml version="1.0" encoding="UTF-8"?>
<svg version="1.1" xmlns="http://www.w3.org/2000/svg" width="279" height="142">
<path d="M0 0 C2.5625 -0.4375 2.5625 -0.4375 5 0 C7 2 7 2 7.8125 4.4375 C9.31579095 7.68144363 10.90858849 8.30708417 14 10 C15.36984198 11.29579647 16.7151049 12.61992749 18 14 C17.01 15.65 16.02 17.3 15 19 C12.1875 18.9375 12.1875 18.9375 9 18 C7.25 14.5625 7.25 14.5625 6 11 C5.34 10.34 4.68 9.68 4 9 C-0.49965222 9.24998068 -3.56915685 11.17908452 -7 14 C-8.80815342 17.03769775 -9.18041606 18.94954015 -8.58203125 22.43359375 C-7.26978515 27.31282924 -5.86020855 31.56870351 -2 35 C1.27321335 36.1902594 4.39128398 36.89178382 7.8125 37.5 C10 38 10 38 12 40 C12 42.33333333 12 44.66666667 12 47 C13.06234473 51.51496509 14.49576768 53.96299866 18 57 C17.34 58.65 16.68 60.3 16 62 C14.93910156 61.81824219 13.87820312 61.63648438 12.78515625 61.44921875 C6.96206232 60.72501711 1.26077595 61.30806773 -4.5625 61.8125 C-6.20895508 61.9372168 -6.20895508 61.9372168 -7.88867188 62.06445312 C-13.52090191 62.52956193 -18.63690883 63.21472202 -24 65 C-26.41625057 65.51776798 -28.829329 65.97116249 -31.265625 66.3828125 C-34.37257776 67.08409612 -37.17284826 68.11758144 -40.125 69.3125 C-41.15882812 69.72113281 -42.19265625 70.12976563 -43.2578125 70.55078125 C-46.13340868 72.07050516 -47.17766966 73.38487338 -49 76 C-51.5625 76.375 -51.5625 76.375 -54 76 C-54.66 75.34 -55.32 74.68 -56 74 C-55.625 70.875 -55.625 70.875 -55 68 C-54.38125 67.95875 -53.7625 67.9175 -53.125 67.875 C-52.42375 67.58625 -51.7225 67.2975 -51 67 C-50.30137452 65.01093819 -49.64028605 63.00860106 -49 61 C-48.03019412 59.04721153 -47.02924876 57.10962207 -46 55.1875 C-43.40031658 50.1086063 -41.93553463 45.6132078 -41 40 C-37.99030978 39.32039253 -35.06792466 38.92479804 -32 38.6875 C-26.68062955 38.14928377 -21.78430547 36.50337993 -16.72265625 34.83984375 C-14 34 -14 34 -12 34 C-12.53732975 25.24413499 -12.53732975 25.24413499 -17 18 C-17.3125 15.5 -17.3125 15.5 -17 13 C-14 11 -14 11 -11.125 10.125 C-6.60732972 8.4986387 -3.81434931 6.49297373 -1.5 2.25 C-1.005 1.5075 -0.51 0.765 0 0 Z M-22.875 40.6875 C-24.22271484 41.05391602 -24.22271484 41.05391602 -25.59765625 41.42773438 C-32.96236033 43.57622633 -36.67637853 46.45916152 -40.45703125 53.20703125 C-41.25170976 54.73727996 -42.03673082 56.27257882 -42.8125 57.8125 C-43.21919922 58.60076172 -43.62589844 59.38902344 -44.04492188 60.20117188 C-45.03843902 62.12976398 -46.02041028 64.06429656 -47 66 C-43.08815983 67.30394672 -41.69789459 66.37057358 -37.9375 64.8125 C-36.87402344 64.38582031 -35.81054688 63.95914063 -34.71484375 63.51953125 C-31.85075115 61.91646359 -31.05004506 61.04578287 -30 58 C-29.01 58.14308594 -29.01 58.14308594 -28 58.2890625 C-20.01816766 59.18286143 -12.36670935 58.83479985 -4.375 58.1875 C-3.30765625 58.10516113 -2.2403125 58.02282227 -1.140625 57.93798828 C-0.13257813 57.84888184 0.87546875 57.75977539 1.9140625 57.66796875 C2.8210791 57.58828857 3.7280957 57.5086084 4.66259766 57.42651367 C7.26167239 57.11178936 7.26167239 57.11178936 10 55 C8.6321541 49.13780328 6.95890617 44.88814526 2.10546875 41.15234375 C-6.25149246 36.5784967 -14.24620994 38.17741811 -22.875 40.6875 Z " fill="#F9FAF9" transform="translate(78,27)"/>
<path d="M0 0 C1.98 0 3.96 0 6 0 C6.33 2.64 6.66 5.28 7 8 C7.36609375 7.4225 7.7321875 6.845 8.109375 6.25 C10.79055851 2.57294833 12.50367378 0.25342511 17.13671875 -0.53125 C20.1267304 -0.5029422 23.031408 -0.35096654 26 0 C28.475 4.455 28.475 4.455 31 9 C32.65 6.03 34.3 3.06 36 0 C37.98 0 39.96 0 42 0 C40.92768825 3.80183257 39.49038158 6.90961754 37.4375 10.25 C34.6478205 15.06629961 34.12629257 19.50053244 34 25 C32.02 25 30.04 25 28 25 C28.00902344 24.34515625 28.01804688 23.6903125 28.02734375 23.015625 C27.74753215 14.40229401 24.65131354 9.18839366 20 2 C17.03 5.3 14.06 8.6 11 12 C14.27196564 16.38740847 17.54812758 20.75154163 21 25 C15.89119171 25.61658031 15.89119171 25.61658031 13 25 C10.55696597 22.96073101 8.7722575 20.63153386 7 18 C6.67 20.31 6.34 22.62 6 25 C4.02 25 2.04 25 0 25 C0 16.75 0 8.5 0 0 Z " fill="#F1F3F3" transform="translate(201,32)"/>
<path d="M0 0 C1.39303605 -0.13657216 2.79006121 -0.23271149 4.1875 -0.3125 C4.96480469 -0.37050781 5.74210937 -0.42851562 6.54296875 -0.48828125 C10.24637088 0.24768897 11.6300926 2.12822594 14 5 C14.62818909 8.15589905 14.62818909 8.15589905 14.63110352 11.74633789 C14.63825882 12.40388565 14.64541412 13.06143341 14.65278625 13.73890686 C14.66962244 15.90087492 14.65030707 18.06075435 14.62890625 20.22265625 C14.62973534 21.73050609 14.63219624 23.23835585 14.63621521 24.74620056 C14.63906955 27.90114657 14.62440726 31.05538119 14.59692383 34.21020508 C14.56281114 38.25128547 14.56887174 42.2910967 14.5875864 46.3322382 C14.59816066 49.44386857 14.58921545 52.5552042 14.57420158 55.66680717 C14.56902433 57.15672365 14.56949607 58.64667097 14.57574654 60.13658333 C14.58120558 62.2194134 14.56080792 64.30043302 14.53344727 66.38305664 C14.52724869 67.56710587 14.52105011 68.75115509 14.5146637 69.97108459 C14 73 14 73 12.373703 75.38517761 C9.24135733 77.51610213 7.26271592 77.4829215 3.48730469 77.45410156 C2.84298492 77.45468567 2.19866516 77.45526978 1.53482056 77.45587158 C-0.58671677 77.45309334 -2.70683436 77.42201774 -4.828125 77.390625 C-6.30213656 77.38316159 -7.77615806 77.37746912 -9.25018311 77.37347412 C-13.12365267 77.3582254 -16.99651916 77.31895107 -20.86975098 77.2746582 C-24.82454267 77.23368852 -28.77943212 77.21545954 -32.734375 77.1953125 C-40.48985782 77.15245528 -48.2448443 77.08421422 -56 77 C-55.67 76.01 -55.34 75.02 -55 74 C-54.21517242 73.99191315 -53.43034485 73.98382629 -52.62173462 73.97549438 C-45.23470432 73.89763628 -37.84787407 73.81037274 -30.46108437 73.71247292 C-26.66322119 73.66247216 -22.86538634 73.61614275 -19.06738281 73.578125 C-15.40385046 73.54131951 -11.740553 73.49497307 -8.07722092 73.44193649 C-6.67779017 73.42336721 -5.27830902 73.40826864 -3.87880325 73.39665604 C-1.9225205 73.37983757 0.03363381 73.34966647 1.98974609 73.31884766 C3.1044931 73.30552399 4.21924011 73.29220032 5.36776733 73.2784729 C8.15684568 73.26234802 8.15684568 73.26234802 10 71 C10.30051796 68.22148247 10.30051796 68.22148247 10.24291992 64.9296875 C10.24599655 63.65496582 10.24907318 62.38024414 10.25224304 61.06689453 C10.24534508 59.66959453 10.2380781 58.27229631 10.23046875 56.875 C10.22927694 55.44775433 10.22882379 54.02050786 10.2290802 52.59326172 C10.22751492 49.60053606 10.21922206 46.60792996 10.20581055 43.61523438 C10.18882062 39.7749001 10.18499619 35.93469729 10.18575573 32.09432983 C10.18548408 29.1467157 10.18000362 26.19913043 10.17275429 23.25152588 C10.16956723 21.83530903 10.16760013 20.4190889 10.16686058 19.00286865 C10.16469745 17.02533801 10.15516089 15.04781955 10.14526367 13.0703125 C10.14145187 11.94383301 10.13764008 10.81735352 10.13371277 9.65673828 C10.17953917 7.02433757 10.17953917 7.02433757 9 5 C6.88153715 4.31270746 6.88153715 4.31270746 4.4375 3.875 C3.61121094 3.70742188 2.78492188 3.53984375 1.93359375 3.3671875 C1.29550781 3.24601562 0.65742187 3.12484375 0 3 C0 2.01 0 1.02 0 0 Z " fill="#F8FAFA" transform="translate(87,27)"/>
<path d="M0 0 C0.88068649 0.02009628 1.76137299 0.04019257 2.66874695 0.06089783 C3.61570938 0.08793289 4.56267181 0.11496796 5.53833008 0.14282227 C6.51071121 0.16643326 7.48309235 0.19004425 8.48493958 0.21437073 C11.5927295 0.29098475 14.70026883 0.37501907 17.80786133 0.45922852 C19.91396883 0.51245145 22.02008859 0.56519183 24.1262207 0.61743164 C29.29109313 0.74659692 34.45575299 0.88241772 39.62036133 1.02172852 C39.62036133 2.01172852 39.62036133 3.00172852 39.62036133 4.02172852 C35.69879381 5.32891769 32.01664365 5.06633384 27.93676758 4.97875977 C26.18742992 4.95637412 24.43808016 4.93491843 22.6887207 4.91430664 C19.93212287 4.87718488 17.17614002 4.83408419 14.41992188 4.77490234 C11.75877936 4.72042825 9.09832815 4.69132361 6.43676758 4.66625977 C5.61374649 4.64247757 4.7907254 4.61869537 3.94276428 4.5941925 C3.17194016 4.59066269 2.40111603 4.58713287 1.60693359 4.58349609 C0.93203384 4.57159744 0.25713409 4.55969879 -0.43821716 4.54743958 C-3.376335 5.26522126 -4.55502318 6.65442905 -6.37963867 9.02172852 C-6.9847488 11.61937597 -6.9847488 11.61937597 -6.90966797 14.49291992 C-6.92615891 15.58730377 -6.94264984 16.68168762 -6.9596405 17.80923462 C-6.95773209 18.98537323 -6.95582367 20.16151184 -6.95385742 21.37329102 C-6.968022 22.58367035 -6.98218658 23.79404968 -6.9967804 25.04110718 C-7.03874564 28.90973785 -7.05393531 32.77790203 -7.06713867 36.64672852 C-7.09615883 40.52247915 -7.13066306 44.39811025 -7.16963196 48.27377319 C-7.19218146 50.68649911 -7.20796285 53.09929921 -7.21647644 55.51211548 C-7.22351089 56.60019501 -7.23054535 57.68827454 -7.23779297 58.80932617 C-7.24127243 59.76988922 -7.24475189 60.73045227 -7.24833679 61.72012329 C-7.37963867 64.02172852 -7.37963867 64.02172852 -8.37963867 66.02172852 C-9.03963867 66.02172852 -9.69963867 66.02172852 -10.37963867 66.02172852 C-10.37963867 48.20172852 -10.37963867 30.38172852 -10.37963867 12.02172852 C-11.03963867 12.02172852 -11.69963867 12.02172852 -12.37963867 12.02172852 C-12.04963867 9.71172852 -11.71963867 7.40172852 -11.37963867 5.02172852 C-10.71963867 5.02172852 -10.05963867 5.02172852 -9.37963867 5.02172852 C-9.11151367 4.38235352 -8.84338867 3.74297852 -8.56713867 3.08422852 C-6.55547348 -0.4097163 -3.66200736 -0.09443572 0 0 Z " fill="#F7F7F7" transform="translate(34.379638671875,25.978271484375)"/>
<path d="M0 0 C3.72034453 1.72047553 5.60579464 4.21158927 7.4375 7.875 C8.21462444 12.19235799 8.28943666 15.82438679 5.98828125 19.70703125 C3.41057314 23.04910707 1.13687114 25.15382181 -3 26 C-7.58559574 26.05857513 -10.99897085 25.61765628 -14.9375 23.1875 C-18.81900005 19.07075752 -19.39484962 15.69693248 -19.25 10.18359375 C-18.77706096 6.05276682 -16.99881904 3.90517975 -14 1.1875 C-9.33971025 -0.65719803 -4.93618009 -0.76720688 0 0 Z M-13 8 C-13.91951097 12.3201162 -13.7483523 15.77270223 -11.4375 19.5625 C-8.01693383 21.57975697 -5.90126052 21.6269883 -2 21 C0.71735902 19.18775608 0.71735902 19.18775608 2 16 C2.29647141 11.76787056 2.04309813 8.22936565 -0.75 4.9375 C-5.94764856 2.7718131 -9.32249645 3.69206726 -13 8 Z " fill="#F4F6F6" transform="translate(163,32)"/>
<path d="M0 0 C2.0625 -0.04125 4.125 -0.0825 6.25 -0.125 C7.99023438 -0.15980469 7.99023438 -0.15980469 9.765625 -0.1953125 C12.86022062 -0.00844078 14.48984828 0.2381799 17 2 C18.60773413 5.28854709 19.228013 7.10867645 18.3125 10.6875 C17 13 17 13 14 16 C15.65 18.97 17.3 21.94 19 25 C16.69 25 14.38 25 12 25 C8 18.25 8 18.25 8 16 C7.01 16 6.02 16 5 16 C5 18.97 5 21.94 5 25 C3.35 25 1.7 25 0 25 C0 16.75 0 8.5 0 0 Z M5 4 C5 6.31 5 8.62 5 11 C7.31 11 9.62 11 12 11 C12.67958603 8.60280568 12.67958603 8.60280568 13 6 C11.10244856 3.65026182 11.10244856 3.65026182 7.875 3.875 C6.92625 3.91625 5.9775 3.9575 5 4 Z " fill="#F5F7F6" transform="translate(157,74)"/>
<path d="M0 0 C2.31 0 4.62 0 7 0 C9.97 8.25 12.94 16.5 16 25 C14.02 25 12.04 25 10 25 C9.76539063 24.35546875 9.53078125 23.7109375 9.2890625 23.046875 C8.18838927 20.7922092 8.18838927 20.7922092 5.8359375 20.390625 C4.61777344 20.32101563 4.61777344 20.32101563 3.375 20.25 C2.55773437 20.19328125 1.74046875 20.1365625 0.8984375 20.078125 C-0.04128906 20.03945312 -0.04128906 20.03945312 -1 20 C-1.33 21.65 -1.66 23.3 -2 25 C-3.98 25 -5.96 25 -8 25 C-5.85406445 16.45115106 -3.0505873 8.25949525 0 0 Z M3 8 C2.34 10.64 1.68 13.28 1 16 C2.98 16 4.96 16 7 16 C6.01 13.36 5.02 10.72 4 8 C3.67 8 3.34 8 3 8 Z " fill="#F5F7F6" transform="translate(225,74)"/>
<path d="M0 0 C2.31 0 4.62 0 7 0 C9.97 8.25 12.94 16.5 16 25 C14.02 25 12.04 25 10 25 C9.76539063 24.35546875 9.53078125 23.7109375 9.2890625 23.046875 C8.18838927 20.7922092 8.18838927 20.7922092 5.8359375 20.390625 C4.61777344 20.32101563 4.61777344 20.32101563 3.375 20.25 C2.55773437 20.19328125 1.74046875 20.1365625 0.8984375 20.078125 C-0.04128906 20.03945312 -0.04128906 20.03945312 -1 20 C-1.33 21.65 -1.66 23.3 -2 25 C-3.98 25 -5.96 25 -8 25 C-5.85406445 16.45115106 -3.0505873 8.25949525 0 0 Z M3 8 C2.34 10.64 1.68 13.28 1 16 C2.98 16 4.96 16 7 16 C6.01 13.36 5.02 10.72 4 8 C3.67 8 3.34 8 3 8 Z " fill="#F3F6F5" transform="translate(119,74)"/>
<path d="M0 0 C5.4939759 2.69879518 5.4939759 2.69879518 6.875 6.25 C6.91625 6.8275 6.9575 7.405 7 8 C4.1875 8.1875 4.1875 8.1875 1 8 C0 7 -1 6 -2 5 C-5.09046979 4.61369128 -7.08912093 4.4660364 -9.8125 6.0625 C-11.61262685 8.99954906 -11.8206098 11.59158612 -12 15 C-11.04357118 17.79571502 -10.64701022 18.67649489 -8 20 C-5.04195427 20.33340471 -5.04195427 20.33340471 -2 20 C-1.505 19.505 -1.01 19.01 -0.5 18.5 C1 17 1 17 4.1875 16.8125 C5.5796875 16.9053125 5.5796875 16.9053125 7 17 C5.73115998 20.91225672 4.71481455 23.0949669 1 25 C-3.46836735 26.10645287 -6.92058496 26.36659379 -11.3125 24.875 C-14.44837022 22.68718357 -16.16326458 21.39089616 -18 18 C-18.76374162 12.82526087 -18.8774537 8.53554397 -16.25 3.9375 C-11.21169786 -0.40103795 -6.48085628 -0.83689798 0 0 Z " fill="#F4F6F5" transform="translate(207,74)"/>
<path d="M0 0 C1.28197266 -0.01160156 1.28197266 -0.01160156 2.58984375 -0.0234375 C5.52653209 0.44977294 6.90243734 1.36121698 9.0625 3.375 C9.8125 5.5625 9.8125 5.5625 10.0625 7.375 C7.1875 7.5 7.1875 7.5 4.0625 7.375 C3.4025 6.715 2.7425 6.055 2.0625 5.375 C0.7425 5.375 -0.5775 5.375 -1.9375 5.375 C-2.2675 6.695 -2.5975 8.015 -2.9375 9.375 C-2.25042969 9.55675781 -1.56335938 9.73851562 -0.85546875 9.92578125 C0.04558594 10.17714844 0.94664062 10.42851563 1.875 10.6875 C2.76832031 10.93113281 3.66164062 11.17476562 4.58203125 11.42578125 C7.1647994 12.41414764 8.44697233 13.14351863 10.0625 15.375 C9.94266357 18.73042009 9.66973808 21.30340338 8 24.25 C4.87021714 26.06729327 1.62290502 26.50712441 -1.9375 26.375 C-4.90910035 25.01839984 -6.64033441 23.67216559 -8.9375 21.375 C-8.9375 20.385 -8.9375 19.395 -8.9375 18.375 C-6.9575 18.375 -4.9775 18.375 -2.9375 18.375 C-2.6075 19.035 -2.2775 19.695 -1.9375 20.375 C-0.2875 20.375 1.3625 20.375 3.0625 20.375 C3.3925 19.055 3.7225 17.735 4.0625 16.375 C3.37542969 16.20484375 2.68835938 16.0346875 1.98046875 15.859375 C1.07941406 15.61703125 0.17835938 15.3746875 -0.75 15.125 C-2.08998047 14.77695312 -2.08998047 14.77695312 -3.45703125 14.421875 C-6.36314199 13.19535897 -7.40512052 12.10663299 -8.9375 9.375 C-8.81094334 6.27436171 -8.5737366 4.22265064 -6.69140625 1.71484375 C-4.36905999 -0.05924259 -2.89813639 -0.0261486 0 0 Z " fill="#F5F8F7" transform="translate(188.9375,31.625)"/>
<path d="M0 0 C4.95 0 9.9 0 15 0 C15 1.32 15 2.64 15 4 C12.03 4 9.06 4 6 4 C6 5.98 6 7.96 6 10 C8.64 10 11.28 10 14 10 C14 11.65 14 13.3 14 15 C11.36 15 8.72 15 6 15 C6 16.98 6 18.96 6 21 C8.97 21 11.94 21 15 21 C15 22.32 15 23.64 15 25 C10.05 25 5.1 25 0 25 C0 16.75 0 8.5 0 0 Z " fill="#F4F6F6" transform="translate(127,32)"/>
<path d="M0 0 C5.28 0 10.56 0 16 0 C16 1.32 16 2.64 16 4 C12.37 4 8.74 4 5 4 C5 6.31 5 8.62 5 11 C7.64 11 10.28 11 13 11 C13 12.32 13 13.64 13 15 C10.36 15 7.72 15 5 15 C5 18.3 5 21.6 5 25 C3.35 25 1.7 25 0 25 C0 16.75 0 8.5 0 0 Z " fill="#F6F8F7" transform="translate(138,74)"/>
<path d="M0 0 C1.98 0 3.96 0 6 0 C6 6.93 6 13.86 6 21 C8.64 21 11.28 21 14 21 C14 22.32 14 23.64 14 25 C9.38 25 4.76 25 0 25 C0 16.75 0 8.5 0 0 Z " fill="#F2F6F6" transform="translate(112,32)"/>
<path d="M0 0 C0.66 0 1.32 0 2 0 C2.02314652 7.52771157 2.04092691 15.05541947 2.05181217 22.58315849 C2.05703593 26.07840098 2.06412441 29.57361916 2.07543945 33.06884766 C2.08835974 37.08496334 2.0932324 41.1010534 2.09765625 45.1171875 C2.10281754 46.37554413 2.10797882 47.63390076 2.11329651 48.9303894 C2.11337204 50.09144196 2.11344757 51.25249451 2.11352539 52.44873047 C2.115746 53.47465302 2.11796661 54.50057556 2.12025452 55.55758667 C2 58 2 58 1 60 C0.34 60 -0.32 60 -1 60 C-1.02312821 52.32463373 -1.04091753 44.64927104 -1.05181217 36.97387791 C-1.05703995 33.41022578 -1.06413569 29.84659743 -1.07543945 26.28295898 C-1.08834176 22.18993903 -1.09322906 18.0969442 -1.09765625 14.00390625 C-1.10281754 12.71851456 -1.10797882 11.43312286 -1.11329651 10.10877991 C-1.11337204 8.92763107 -1.11344757 7.74648224 -1.11352539 6.52954102 C-1.115746 5.48363297 -1.11796661 4.43772491 -1.12025452 3.36012268 C-1 1 -1 1 0 0 Z " fill="#FBFBFA" transform="translate(25,32)"/>
<path d="M0 0 C1.65 0 3.3 0 5 0 C5 8.25 5 16.5 5 25 C3.35 25 1.7 25 0 25 C0 16.75 0 8.5 0 0 Z " fill="#F6F8F7" transform="translate(180,74)"/>
<path d="M0 0 C2.31 0 4.62 0 7 0 C7.99 3.3 8.98 6.6 10 10 C9.01 9.67 8.02 9.34 7 9 C7.33 11.64 7.66 14.28 8 17 C5.03 17 2.06 17 -1 17 C-0.34 14.03 0.32 11.06 1 8 C-0.32 9.32 -1.64 10.64 -3 12 C-2.68950274 10.56206608 -2.3765224 9.1246682 -2.0625 7.6875 C-1.88847656 6.88699219 -1.71445313 6.08648437 -1.53515625 5.26171875 C-1 3 -1 3 0 0 Z M3 8 C2.34 10.64 1.68 13.28 1 16 C2.98 16 4.96 16 7 16 C6.01 13.36 5.02 10.72 4 8 C3.67 8 3.34 8 3 8 Z " fill="#EDF0EF" transform="translate(225,74)"/>
<path d="M0 0 C0.99 0 1.98 0 3 0 C3.06740767 3.37038348 3.12452376 6.45209546 2.375 9.75 C1.80848476 14.65979879 2.96682906 19.20130524 4 24 C2.35 24 0.7 24 -1 24 C-0.67 16.08 -0.34 8.16 0 0 Z " fill="#F9FCFB" transform="translate(203,33)"/>
<path d="M0 0 C0.66 1.32 1.32 2.64 2 4 C5.3 3.67 8.6 3.34 12 3 C12 4.32 12 5.64 12 7 C7.38 7 2.76 7 -2 7 C-2 2 -2 2 0 0 Z " fill="#FCFDFC" transform="translate(130,50)"/>
<path d="M0 0 C0 0.66 0 1.32 0 2 C-0.99 2.495 -0.99 2.495 -2 3 C-1.67 3.66 -1.34 4.32 -1 5 C-2.65 6.32 -4.3 7.64 -6 9 C-6 8.01 -6 7.02 -6 6 C-6.99 6.495 -6.99 6.495 -8 7 C-8.65555119 9.52733235 -8.65555119 9.52733235 -9 12 C-9.66 12 -10.32 12 -11 12 C-10.67 9.69 -10.34 7.38 -10 5 C-9.34 5 -8.68 5 -8 5 C-7.731875 4.360625 -7.46375 3.72125 -7.1875 3.0625 C-5.37365074 -0.08786977 -3.47812867 0 0 0 Z " fill="#7F7F7D" transform="translate(33,26)"/>
<path d="M0 0 C0.66 0.33 1.32 0.66 2 1 C1.34 3.64 0.68 6.28 0 9 C-0.99 8.67 -1.98 8.34 -3 8 C-2.37240135 5.07120629 -1.41377341 2.63904371 0 0 Z M-4 9 C-3.01 9.495 -3.01 9.495 -2 10 C-2.99 10.495 -2.99 10.495 -4 11 C-4 10.34 -4 9.68 -4 9 Z " fill="#FBFEFD" transform="translate(225,81)"/>
</svg>
