<?xml version="1.0" encoding="UTF-8"?>
<svg version="1.1" xmlns="http://www.w3.org/2000/svg" width="234" height="223">
<path d="M0 0 C2.51475584 2.33513042 3.02194837 4.08622573 3.875 7.4375 C5.20070671 11.63557125 6.54060808 13.30936184 10 16 C12.31765729 16.71927295 14.65095874 17.3909893 17 18 C18.9375 19.1875 18.9375 19.1875 20 21 C20.4375 24.5 20.4375 24.5 20 28 C17.80827201 30.61321414 16.35345908 30.94109015 13 31.5 C10 31 10 31 7.75 28.9375 C6 26 6 26 5.125 22.5 C3.61501327 17.8022635 2.14583314 16.6310095 -2 14 C-6.0668638 13.39453994 -7.76130411 13.86205598 -11.359375 15.94140625 C-12.5012548 16.79979395 -13.63137059 17.67402537 -14.75 18.5625 C-15.32621094 18.98080078 -15.90242188 19.39910156 -16.49609375 19.83007812 C-20.63018405 23.03423902 -22.06884998 25.70522535 -23 31 C-22.64139885 38.29155676 -21.36776284 46.20725408 -16.5625 51.875 C-15.2940625 52.926875 -15.2940625 52.926875 -14 54 C-13.0409375 55.051875 -13.0409375 55.051875 -12.0625 56.125 C-8.87044766 59.02686577 -6.00850899 60.99355214 -1.56640625 61.0078125 C-0.69886719 60.96398437 0.16867188 60.92015625 1.0625 60.875 C4.83550317 60.77811019 5.82046802 60.89087272 9.1875 62.9375 C11.15604312 66.26365907 11.14675331 66.54057604 10.5 70.0625 C9.39038602 76.30146164 11.81391346 81.6821599 15 87 C16.64148072 88.36422015 18.30556653 89.70213607 20 91 C21.0625 93.9375 21.0625 93.9375 21 97 C19.5 99.875 19.5 99.875 17 102 C12.58440935 102.54226552 10.73255448 102.48836965 7 100 C4.28502496 99.97596873 1.7062422 100.06964422 -0.9921875 100.27734375 C-1.78704559 100.33035141 -2.58190369 100.38335907 -3.40084839 100.43797302 C-5.93509327 100.61173483 -8.4674393 100.80328978 -11 101 C-12.21000671 101.09223846 -12.21000671 101.09223846 -13.44445801 101.18634033 C-19.0072867 101.61495635 -24.56625768 102.0842002 -30.125 102.5625 C-31.77732357 102.70271192 -33.42966729 102.84268673 -35.08203125 102.98242188 C-39.05492339 103.31890032 -43.02753468 103.65852089 -47 104 C-47 104.66 -47 105.32 -47 106 C-50.38899411 108.25932941 -51.06062025 108.12130284 -54.9375 107.83203125 C-61.73681384 107.71221462 -66.89613712 109.88956546 -73 112.6875 C-74.02222656 113.12255859 -75.04445313 113.55761719 -76.09765625 114.00585938 C-81.49339843 116.40515185 -84.06834338 117.77461275 -87 123 C-90.49124017 125.32749345 -91.89222251 125.50299316 -96 125 C-98.375 123.375 -98.375 123.375 -100 121 C-100.5 118 -100.5 118 -100 115 C-97.76793569 112.15219381 -96.45007001 111.15002334 -93 110 C-91.60394591 107.7560658 -90.38838918 105.57289409 -89.20703125 103.21875 C-88.85613937 102.53123657 -88.5052475 101.84372314 -88.14372253 101.13537598 C-87.40317999 99.67524136 -86.66799235 98.21238049 -85.93774414 96.74707031 C-84.82562248 94.52620509 -83.68465601 92.32195026 -82.54101562 90.1171875 C-81.82369242 88.69362819 -81.10814159 87.26917414 -80.39453125 85.84375 C-79.88367729 84.86819153 -79.88367729 84.86819153 -79.36250305 83.8729248 C-77.18047564 79.40028676 -76.70753513 75.90523268 -77.05155945 70.93713379 C-77 69 -77 69 -75.25 66.5 C-71.57221495 64.0481433 -69.60456847 63.88582453 -65.21484375 64.71484375 C-58.06410456 65.62754822 -51.27350653 62.74731167 -44.5625 60.5625 C-42.50484585 59.90996748 -40.44573916 59.26226559 -38.38597107 58.61643982 C-36.53411036 58.03310784 -34.68600834 57.4378829 -32.83813477 56.84204102 C-30 56 -30 56 -28 56 C-26.3629238 47.95104204 -27.7219334 41.52326466 -31 34 C-32.29580568 32.27641164 -32.29580568 32.27641164 -33.75 31.0625 C-36 29 -36 29 -36.5625 25.9375 C-35.84371654 22.18385306 -35.16275707 21.15993166 -32 19 C-30.63279067 18.7104078 -29.25589348 18.46507721 -27.875 18.25 C-21.68025629 17.0910496 -17.31265121 13.45747905 -13 9 C-11.65013921 6.69246771 -10.89676761 4.54084157 -10 2 C-6.81156936 -1.51826829 -4.42894546 -1.41349323 0 0 Z M-35.36328125 63.87890625 C-36.07348923 64.08805161 -36.7836972 64.29719696 -37.51542664 64.51268005 C-39.01731222 64.95899671 -40.51760155 65.41071541 -42.01635742 65.86743164 C-44.2885759 66.5552579 -46.56808739 67.21294084 -48.84960938 67.86914062 C-56.37939713 70.09973208 -62.51879687 72.1075089 -68 78 C-68.64912354 78.59683594 -69.29824707 79.19367188 -69.96704102 79.80859375 C-72.33061331 82.35638106 -73.68312513 84.86466748 -75.234375 87.97265625 C-75.80800781 89.11927734 -76.38164063 90.26589844 -76.97265625 91.44726562 C-77.26414551 92.04063721 -77.55563477 92.63400879 -77.85595703 93.24536133 C-78.75148667 95.06552166 -79.66184102 96.87768962 -80.57421875 98.68945312 C-83.81197441 104.57603064 -83.81197441 104.57603064 -85 111 C-80.04991468 109.40497251 -75.20716049 107.60442478 -70.375 105.6875 C-69.62476563 105.40455078 -68.87453125 105.12160156 -68.1015625 104.83007812 C-63.51830155 102.99758638 -60.68360803 101.35198869 -58 97 C-58 96.34 -58 95.68 -58 95 C-56.5629191 94.94577053 -55.12524538 94.90710277 -53.6875 94.875 C-52.88699219 94.85179687 -52.08648437 94.82859375 -51.26171875 94.8046875 C-49 95 -49 95 -46 97 C-43.034884 97.06406115 -40.20265309 96.99528461 -37.25 96.8125 C-36.35563232 96.76279053 -35.46126465 96.71308105 -34.53979492 96.66186523 C-26.48962732 96.17232347 -18.45293456 95.49221934 -10.42199707 94.75570679 C-9.01605403 94.62693783 -7.60988113 94.50065433 -6.20349121 94.37686157 C-4.2142115 94.1996185 -2.22620123 94.00829955 -0.23828125 93.81640625 C0.91631592 93.70756104 2.07091309 93.59871582 3.26049805 93.48657227 C6.13623405 93.24546876 6.13623405 93.24546876 8 91 C7.73797742 85.62853703 5.66537624 80.62234684 3 76 C0.52338502 73.75149517 0.52338502 73.75149517 -2 72 C-2.5878125 70.7625 -2.5878125 70.7625 -3.1875 69.5 C-6.12005159 65.45510126 -10.26815429 64.24450277 -15 63 C-17.37930299 62.80049323 -19.61240842 62.79457401 -21.9921875 62.95703125 C-24 63 -24 63 -25.6652832 62.38525391 C-29.12487281 61.81438363 -32.07499653 62.88609004 -35.36328125 63.87890625 Z " fill="#FBFBFB" transform="translate(148,46)"/>
<path d="M0 0 C6.22942254 0.0591167 9.87414454 1.14115203 14.625 5.25 C17.17508643 8.27232466 17.43840612 10.82875882 17.45294189 14.63925171 C17.45865204 15.53646439 17.46436218 16.43367706 17.47024536 17.358078 C17.47192215 18.83090996 17.47192215 18.83090996 17.47363281 20.33349609 C17.48108017 21.88755409 17.48108017 21.88755409 17.48867798 23.4730072 C17.50330468 26.90649068 17.51010214 30.33992797 17.515625 33.7734375 C17.52137561 36.15613812 17.52713335 38.53883872 17.53289795 40.92153931 C17.54340909 45.9200258 17.54925116 50.9184962 17.55273438 55.91699219 C17.55822223 62.32527996 17.5822562 68.73335558 17.61070633 75.14157677 C17.62931864 80.0640424 17.63453754 84.98645677 17.63607025 89.90895462 C17.6391 92.27167548 17.64713929 94.63439536 17.66025543 96.99708176 C17.6772877 100.300791 17.67544246 103.60397965 17.66894531 106.90771484 C17.6781601 107.88555435 17.68737488 108.86339386 17.6968689 109.87086487 C17.65733324 116.28025302 16.63409817 119.63820206 12.3125 124.5 C9.32972219 127.10993058 6.81651893 127.37485406 3.00349426 127.37025452 C2.12429825 127.37162918 1.24510223 127.37300385 0.33926392 127.37442017 C-1.10327255 127.36902725 -1.10327255 127.36902725 -2.57495117 127.36352539 C-3.58976059 127.36367142 -4.60457001 127.36381744 -5.65013123 127.3639679 C-9.01026535 127.36327026 -12.37034429 127.35548478 -15.73046875 127.34765625 C-18.05788645 127.34579154 -20.38530454 127.34436789 -22.71272278 127.34336853 C-28.84314047 127.33954751 -34.97353453 127.32972074 -41.10394287 127.31866455 C-47.35770345 127.30844152 -53.61146785 127.30386899 -59.86523438 127.29882812 C-72.13933331 127.28809813 -84.41341469 127.27102666 -96.6875 127.25 C-95.8125 123.375 -95.8125 123.375 -94.6875 122.25 C-91.60927045 122.14057646 -88.55265698 122.0957599 -85.47363281 122.09228516 C-84.50616119 122.08720444 -83.53868958 122.08212372 -82.54190063 122.07688904 C-80.4329444 122.06615896 -78.3239766 122.05754921 -76.21500397 122.05076981 C-72.87819899 122.03901874 -69.54152567 122.01957504 -66.20477295 121.99765015 C-56.71468481 121.93591174 -47.22460857 121.88199125 -37.734375 121.84863281 C-31.93650866 121.82770045 -26.13887938 121.79240453 -20.34114838 121.74787521 C-18.1291864 121.73369913 -15.91718244 121.72498916 -13.70517731 121.72182083 C-10.60951413 121.71691848 -7.51448078 121.69377615 -4.41894531 121.66650391 C-3.50341888 121.66951004 -2.58789246 121.67251617 -1.6446228 121.6756134 C3.14020486 121.61293591 6.45118369 121.40927524 10.3125 118.25 C11.46440348 115.94619304 11.43821238 114.65038899 11.43948364 112.08816528 C11.44230347 111.21612457 11.44512329 110.34408386 11.44802856 109.44561768 C11.44600433 108.4866156 11.4439801 107.52761353 11.44189453 106.53955078 C11.44364685 105.53131256 11.44539917 104.52307434 11.44720459 103.48428345 C11.45162021 100.13794249 11.44868568 96.79165403 11.4453125 93.4453125 C11.44598573 91.12604767 11.44695591 88.8067829 11.44821167 86.48751831 C11.44968834 81.62009003 11.44753547 76.75268006 11.44287109 71.88525391 C11.43718017 65.6417043 11.44044898 59.39819775 11.44644356 53.15464973 C11.45005541 48.36261673 11.44890759 43.57059395 11.44631577 38.77856064 C11.4456479 36.47642893 11.44647004 34.17429631 11.44879532 31.87216568 C11.45133133 28.6544982 11.44746746 25.43690056 11.44189453 22.21923828 C11.44493088 20.78680786 11.44493088 20.78680786 11.44802856 19.32543945 C11.44379883 18.00891891 11.44379883 18.00891891 11.43948364 16.665802 C11.43910662 15.90515505 11.43872959 15.14450809 11.43834114 14.36081123 C11.30752192 12.16649961 11.05497992 10.32190477 10.3125 8.25 C5.31982156 5.81766948 -0.22348385 5.66034113 -5.6875 5.25 C-6.25 3.3125 -6.25 3.3125 -6.6875 1.25 C-4.91035156 -0.52714844 -2.40479002 0.03549506 0 0 Z " fill="#F7F7F7" transform="translate(160.6875,45.75)"/>
<path d="M0 0 C1.08374153 -0.00065712 1.08374153 -0.00065712 2.18937683 -0.00132751 C4.56492636 0.00075373 6.93976011 0.02405244 9.31518555 0.04760742 C10.96713373 0.05320576 12.61908691 0.05747474 14.27104187 0.06047058 C18.60960752 0.07190067 22.94786977 0.10135187 27.28631592 0.13458252 C31.71712134 0.16532312 36.147976 0.17898443 40.57885742 0.1940918 C49.26584529 0.22622349 57.952587 0.27739741 66.6394043 0.34057617 C67.1344043 1.82557617 67.1344043 1.82557617 67.6394043 3.34057617 C67.3094043 4.00057617 66.9794043 4.66057617 66.6394043 5.34057617 C65.80081879 5.34644241 64.96223328 5.35230865 64.09823608 5.35835266 C56.182633 5.41633543 48.26731041 5.4884441 40.35198021 5.57629108 C36.28293221 5.62095595 32.21398344 5.66022043 28.14477539 5.68701172 C24.21532499 5.71308376 20.2862572 5.75351321 16.35704422 5.80376244 C14.86044714 5.8204049 13.36378393 5.83193549 11.86710739 5.83819008 C9.76524814 5.84786018 7.66436193 5.87595144 5.56274414 5.90820312 C4.36805511 5.91930618 3.17336609 5.93040924 1.94247437 5.94184875 C-1.75047852 6.38764056 -4.19357364 7.41615445 -7.3605957 9.34057617 C-8.94766429 12.51471334 -8.51373243 15.94066826 -8.51831055 19.42700195 C-8.52339127 20.2630043 -8.52847198 21.09900665 -8.53370667 21.96034241 C-8.54442326 23.7800707 -8.55303836 25.59981229 -8.5598259 27.41955948 C-8.57160559 30.30361068 -8.59105837 33.18751151 -8.61294556 36.07150269 C-8.67457641 44.27312174 -8.7285205 52.4747275 -8.76196289 60.67651367 C-8.78296107 65.69101794 -8.81831156 70.70525152 -8.86272049 75.71960068 C-8.87684641 77.62764158 -8.8855952 79.53573041 -8.88877487 81.44382095 C-8.89370824 84.12209419 -8.91693026 86.79965569 -8.9440918 89.4777832 C-8.94108566 90.25939316 -8.93807953 91.04100311 -8.9349823 91.84629822 C-9.01629293 97.2714483 -10.22528432 101.34830931 -12.3605957 106.34057617 C-13.3505957 106.01057617 -14.3405957 105.68057617 -15.3605957 105.34057617 C-15.43008896 92.77973606 -15.48340366 80.21894165 -15.51603222 67.65794849 C-15.53169184 61.82544479 -15.55293578 55.99307256 -15.58691406 50.16064453 C-15.61949655 44.53262221 -15.63744649 38.9047264 -15.64522743 33.27661705 C-15.6507729 31.12880143 -15.66160176 28.98099278 -15.67778587 26.83323097 C-15.69954509 23.82616812 -15.70256322 20.81962884 -15.70117188 17.8125 C-15.7119577 16.92345474 -15.72274353 16.03440948 -15.7338562 15.11842346 C-15.71020094 10.39742345 -15.56014308 7.08366148 -12.3605957 3.34057617 C-8.33279035 0.10161685 -5.07993921 -0.02596221 0 0 Z " fill="#FAFAF9" transform="translate(66.360595703125,45.659423828125)"/>
<path d="M0 0 C0.99033234 0.00565979 1.98066467 0.01131958 3.00100708 0.01715088 C6.14961025 0.03945826 9.29705599 0.08964498 12.4453125 0.140625 C14.58592101 0.16069725 16.72654744 0.17894675 18.8671875 0.1953125 C24.1019543 0.23930431 29.33605069 0.30615972 34.5703125 0.390625 C34.5703125 0.720625 34.5703125 1.050625 34.5703125 1.390625 C32.65569214 1.41249878 32.65569214 1.41249878 30.70239258 1.43481445 C25.95910871 1.4928604 21.21629643 1.57009328 16.47338867 1.65307617 C14.42203434 1.68629583 12.37058925 1.71433697 10.3190918 1.73706055 C7.36728301 1.7706607 4.41630364 1.82297976 1.46484375 1.87890625 C0.55007767 1.88529617 -0.36468842 1.8916861 -1.30717468 1.89826965 C-8.00805295 2.05240793 -11.32005642 3.3747553 -16.2421875 8.078125 C-16.9640625 8.84125 -17.6859375 9.604375 -18.4296875 10.390625 C-17.59144781 6.70237038 -16.84413352 4.76158952 -13.99560547 2.21191406 C-9.61473431 -0.51801148 -5.00800459 -0.1084499 0 0 Z " fill="#E8EAEA" transform="translate(69.4296875,45.609375)"/>
<path d="M0 0 C0.556875 0.226875 1.11375 0.45375 1.6875 0.6875 C0.800625 1.05875 -0.08625 1.43 -1 1.8125 C-4.89649884 4.01806538 -6.63880578 6.14878706 -9.3125 9.6875 C-9.6425 9.0275 -9.9725 8.3675 -10.3125 7.6875 C-8.27438476 3.27158365 -5.29468213 -0.71549758 0 0 Z " fill="#323333" transform="translate(61.3125,46.3125)"/>
<path d="M0 0 C0 0.33 0 0.66 0 1 C-0.94875 1.28875 -1.8975 1.5775 -2.875 1.875 C-6.05211578 2.76825109 -6.05211578 2.76825109 -8 5 C-8.64767793 7.57061311 -8.64767793 7.57061311 -9 10 C-9.33 10 -9.66 10 -10 10 C-10.32152515 6.46322336 -10.4131192 4.6037896 -8.375 1.625 C-5.3962104 -0.4131192 -3.53677664 -0.32152515 0 0 Z " fill="#EEEEEE" transform="translate(122,65)"/>
</svg>
