<?xml version="1.0" encoding="UTF-8"?>
<svg version="1.1" xmlns="http://www.w3.org/2000/svg" width="242" height="94">
<path d="M0 0 C79.86 0 159.72 0 242 0 C242 31.02 242 62.04 242 94 C162.14 94 82.28 94 0 94 C0 62.98 0 31.96 0 0 Z " fill="#6B1888" transform="translate(0,0)"/>
<path d="M0 0 C2.3125 0.125 2.3125 0.125 5 1 C6.03432904 2.98246398 7.03238392 4.98413316 8 7 C10.42672567 8.78969026 10.42672567 8.78969026 13 10 C13.99 10.66 14.98 11.32 16 12 C16.25 14.5625 16.25 14.5625 16 17 C15 18 15 18 12.5625 18.1875 C10 18 10 18 8 16 C7.33333333 14.33333333 6.66666667 12.66666667 6 11 C4.19510474 8.84059265 4.19510474 8.84059265 1.8125 8.5 C-2.53840194 9.27349368 -5.21894731 11.6315057 -8 15 C-9.63434419 19.90303257 -9.00876205 23.52490569 -6.99609375 28.140625 C-5.34887097 31.21544086 -3.84363841 32.94289987 -1 35 C1.59536433 35.70819878 4.1279742 36.17937879 6.79296875 36.54296875 C9 37 9 37 11 39 C11 41.33333333 11 43.66666667 11 46 C12.1708264 50.89056361 12.1708264 50.89056361 16 54 C16.25 56.5625 16.25 56.5625 16 59 C15 60 15 60 12.4296875 60.02734375 C11.25664063 59.99769531 10.08359375 59.96804687 8.875 59.9375 C1.77887754 59.84669527 -5.24235297 60.28903662 -12.3125 60.875 C-13.84318115 60.99282837 -13.84318115 60.99282837 -15.40478516 61.11303711 C-16.83830322 61.23884155 -16.83830322 61.23884155 -18.30078125 61.3671875 C-19.15841064 61.44050293 -20.01604004 61.51381836 -20.8996582 61.58935547 C-23.21043084 61.838239 -23.21043084 61.838239 -25 64 C-26.04671875 63.97292969 -27.0934375 63.94585937 -28.171875 63.91796875 C-32.54331269 64.01164241 -35.48885914 65.28946211 -39.25 67.3125 C-40.16652344 67.7755957 -40.16652344 67.7755957 -41.1015625 68.24804688 C-43.57915222 69.5328232 -45.72256376 70.71284053 -47.671875 72.73046875 C-49 74 -49 74 -53 74 C-53.33 71.69 -53.66 69.38 -54 67 C-53.07513794 66.62500366 -53.07513794 66.62500366 -52.1315918 66.24243164 C-49.61113692 64.77334507 -49.06126123 63.75654165 -47.89453125 61.12109375 C-47.55099609 60.36505859 -47.20746094 59.60902344 -46.85351562 58.83007812 C-46.50998047 58.04052734 -46.16644531 57.25097656 -45.8125 56.4375 C-45.11222589 54.87300375 -44.4104801 53.30916511 -43.70703125 51.74609375 C-43.4025708 51.05185303 -43.09811035 50.3576123 -42.78442383 49.64233398 C-42 48 -42 48 -41 47 C-40.835 45.845 -40.67 44.69 -40.5 43.5 C-40 40 -40 40 -39 39 C-37.865625 39.04125 -36.73125 39.0825 -35.5625 39.125 C-30.35145966 39.190138 -25.88951078 37.66739077 -21 36 C-20.12988281 35.71382812 -19.25976562 35.42765625 -18.36328125 35.1328125 C-16.23846032 34.43232208 -14.11783122 33.72129034 -12 33 C-12.29943768 24.2163711 -12.29943768 24.2163711 -17 17 C-17.1875 14.875 -17.1875 14.875 -16 13 C-14.31986473 12.24229194 -12.6331158 11.49435611 -10.91015625 10.83984375 C-5.88029814 8.62835194 -2.49637901 4.8540703 0 0 Z " fill="#F5F0F7" transform="translate(70,8)"/>
<path d="M0 0 C7.63339626 5.68762858 7.63339626 5.68762858 8.61376953 10.44238281 C8.80501302 12.41992188 8.99625651 14.39746094 9.1875 16.375 C5.16750981 16.88193672 1.14639046 17.3793039 -2.875 17.875 C-4.00873047 18.01808594 -5.14246094 18.16117188 -6.31054688 18.30859375 C-17.48709486 19.67715065 -17.48709486 19.67715065 -22.8125 19.375 C-23.1425 19.045 -23.4725 18.715 -23.8125 18.375 C-26.22787838 17.95782721 -26.22787838 17.95782721 -28.8125 18.375 C-29.23660156 18.98472656 -29.66070312 19.59445313 -30.09765625 20.22265625 C-32.34599333 23.04460096 -34.53849393 23.81147878 -37.875 25.125 C-38.93847656 25.55296875 -40.00195312 25.9809375 -41.09765625 26.421875 C-43.8125 27.375 -43.8125 27.375 -45.8125 27.375 C-44.44627986 22.93478455 -42.71897495 18.92631595 -40.5625 14.8125 C-39.71945313 13.17087891 -39.71945313 13.17087891 -38.859375 11.49609375 C-34.65436034 5.08424888 -29.69332776 2.49937623 -22.5625 0.5625 C-21.81178223 0.35310791 -21.06106445 0.14371582 -20.28759766 -0.07202148 C-13.32987492 -1.91536036 -6.69933871 -3.38538011 0 0 Z " fill="#6B1989" transform="translate(69.8125,46.625)"/>
<path d="M0 0 C3.85544798 1.99657127 5.59805092 3.39707638 8 7 C8.76768116 11.6864257 8.40885085 15.19690011 6.25 19.4375 C3.55382446 22.50814437 1.65255719 23.7689107 -2.40234375 24.3359375 C-6.64465711 24.40130442 -9.26810834 24.4269368 -13 22.25 C-16.67916439 18.11094006 -17.49336702 14.70276511 -17.39453125 9.2578125 C-16.72202988 5.40924032 -14.79323112 3.66022012 -12 1 C-8.29240268 -0.85379866 -4.04626515 -0.45923868 0 0 Z " fill="#F3ECF5" transform="translate(151,13)"/>
<path d="M0 0 C7.24890838 -0.61431427 7.24890838 -0.61431427 10.59945679 2.12608337 C13.46900043 5.56148463 13.63145406 7.0566132 13.64697266 11.47094727 C13.66273346 12.75900772 13.67849426 14.04706818 13.69473267 15.37416077 C13.68578355 16.77158467 13.67552872 18.16900073 13.6640625 19.56640625 C13.66743297 21.00699777 13.67228752 22.44758652 13.67855835 23.88816833 C13.68591668 26.90187758 13.67525775 29.91484412 13.65185547 32.9284668 C13.62334072 36.78814193 13.63979246 40.64608075 13.66971779 44.50569248 C13.68779817 47.47837884 13.68203022 50.45065436 13.66907883 53.4233532 C13.66574809 54.8462946 13.66982033 56.26927354 13.68147659 57.6921711 C13.69419629 59.6809224 13.67136553 61.66980488 13.64697266 63.65844727 C13.64100571 65.35457909 13.64100571 65.35457909 13.63491821 67.0849762 C13 70 13 70 10.85075378 72.3679657 C7.50961917 74.2807392 5.57172906 74.4853094 1.7409668 74.45410156 C0.50005783 74.45379944 -0.74085114 74.45349731 -2.0193634 74.45318604 C-3.36317596 74.43276278 -4.70698189 74.41189885 -6.05078125 74.390625 C-7.43368205 74.38315866 -8.81659348 74.37746758 -10.19950867 74.37347412 C-13.82802877 74.3582483 -17.45590188 74.31899424 -21.08416748 74.2746582 C-24.79104868 74.23363873 -28.49803507 74.21544895 -32.20507812 74.1953125 C-39.47034609 74.15249579 -46.73508217 74.084283 -54 74 C-54 73.34 -54 72.68 -54 72 C-53.24022858 71.99191315 -52.48045715 71.98382629 -51.69766235 71.97549438 C-44.54608567 71.89763273 -37.3947155 71.81036814 -30.24338722 71.71247292 C-26.56659359 71.66247448 -22.88982918 71.61614507 -19.21289062 71.578125 C-15.66606297 71.54131654 -12.11947779 71.49496933 -8.5728569 71.44193649 C-7.2180849 71.42336878 -5.86326087 71.40826962 -4.50841141 71.39665604 C-2.61439144 71.37983491 -0.72050412 71.34966384 1.17333984 71.31884766 C2.25255707 71.30552399 3.33177429 71.29220032 4.44369507 71.2784729 C7.1655864 71.25199493 7.1655864 71.25199493 9 69 C9.30747823 66.22172172 9.30747823 66.22172172 9.25878906 62.9296875 C9.26509338 61.65496582 9.27139771 60.38024414 9.27789307 59.06689453 C9.27431339 57.66959496 9.27021146 56.27229663 9.265625 54.875 C9.26697171 53.44775323 9.26891229 52.02050691 9.27142334 50.59326172 C9.27437434 47.60054155 9.27007782 44.60794069 9.26074219 41.61523438 C9.24934755 37.77483627 9.25590717 33.93471768 9.26788712 30.09432983 C9.27510643 27.146707 9.27281748 24.19915069 9.26763153 21.25152588 C9.26629523 19.83530647 9.26794209 18.41908106 9.27259064 17.00286865 C9.27765675 15.02535107 9.26856908 13.04781238 9.25878906 11.0703125 C9.25719788 9.94383301 9.25560669 8.81735352 9.25396729 7.65673828 C9.26966815 4.84526164 9.26966815 4.84526164 7 3 C4.67724823 2.59952556 2.34260643 2.2602896 0 2 C0 1.34 0 0.68 0 0 Z " fill="#F0E8F3" transform="translate(79,9)"/>
<path d="M0 0 C12.21934594 -0.49371095 12.21934594 -0.49371095 15.890625 1.828125 C18 4 18 4 18.5625 7 C17.89445807 10.56289027 16.77105839 11.74851506 14 14 C14.433125 15.0828125 14.433125 15.0828125 14.875 16.1875 C15.91666667 18.79166667 16.95833333 21.39583333 18 24 C16.02 24 14.04 24 12 24 C8 17.25 8 17.25 8 15 C7.01 15 6.02 15 5 15 C5 17.97 5 20.94 5 24 C3.35 24 1.7 24 0 24 C0 16.08 0 8.16 0 0 Z " fill="#F0E7F3" transform="translate(146,54)"/>
<path d="M0 0 C1.98 0 3.96 0 6 0 C7.33852796 3.62310328 8.66993718 7.24878144 10 10.875 C10.3815625 11.90753906 10.763125 12.94007812 11.15625 14.00390625 C11.5171875 14.99003906 11.878125 15.97617188 12.25 16.9921875 C12.58515625 17.90339355 12.9203125 18.81459961 13.265625 19.75341797 C14 22 14 22 14 24 C12.35 24 10.7 24 9 24 C8.505 21.525 8.505 21.525 8 19 C4.7 19 1.4 19 -2 19 C-2.33 20.65 -2.66 22.3 -3 24 C-4.65 24 -6.3 24 -8 24 C-6.3281147 15.50288881 -3.46037419 7.90942673 0 0 Z " fill="#F0E9F3" transform="translate(213,54)"/>
<path d="M0 0 C1.98 0 3.96 0 6 0 C7.2319332 3.19426159 8.46176992 6.38928917 9.6875 9.5859375 C10.45140165 11.57299121 11.21989054 13.55831582 12 15.5390625 C13.15826425 18.51268321 14 20.7776491 14 24 C12.35 24 10.7 24 9 24 C8.505 21.525 8.505 21.525 8 19 C4.7 19 1.4 19 -2 19 C-2.33 20.65 -2.66 22.3 -3 24 C-4.65 24 -6.3 24 -8 24 C-7.23468759 21.31081925 -6.46293869 18.62376181 -5.6875 15.9375 C-5.47416016 15.18533203 -5.26082031 14.43316406 -5.04101562 13.65820312 C-3.66879896 8.92712776 -2.03248555 4.48815725 0 0 Z " fill="#F1E9F4" transform="translate(110,54)"/>
<path d="M0 0 C2.5625 1.3125 2.5625 1.3125 4 3 C4 3.99 4 4.98 4 6 C1.625 6.125 1.625 6.125 -1 6 C-1.66 5.34 -2.32 4.68 -3 4 C-5.10820797 4.3185177 -5.10820797 4.3185177 -7 5 C-7 5.99 -7 6.98 -7 8 C-6.30132812 8.25394531 -5.60265625 8.50789063 -4.8828125 8.76953125 C-3.51769531 9.28580078 -3.51769531 9.28580078 -2.125 9.8125 C-1.22007812 10.14894531 -0.31515625 10.48539063 0.6171875 10.83203125 C3 12 3 12 5 15 C5.4375 17.4375 5.4375 17.4375 5 20 C2.83707869 22.58155124 1.15158478 23.79714076 -2.1953125 24.38671875 C-6.12245908 24.57465151 -8.29713832 24.49714606 -11.5625 22.1875 C-13 20 -13 20 -13 17 C-10.625 16.8125 -10.625 16.8125 -8 17 C-7.34 17.99 -6.68 18.98 -6 20 C-4.35 19.67 -2.7 19.34 -1 19 C-1.15507437 17.02667073 -1.15507437 17.02667073 -2 15 C-4.01937002 13.97018198 -4.01937002 13.97018198 -6.4375 13.4375 C-10.7918552 12.31221719 -10.7918552 12.31221719 -13 9 C-12.8125 5.4375 -12.8125 5.4375 -12 2 C-7.97239992 -0.68506672 -4.72890707 -0.5633716 0 0 Z " fill="#F1E9F4" transform="translate(182,13)"/>
<path d="M0 0 C2.63965379 1.39776943 3.95257153 2.73705274 6 5 C6 5.66 6 6.32 6 7 C3.625 7.125 3.625 7.125 1 7 C0.34 6.34 -0.32 5.68 -1 5 C-6.18321585 4.50935723 -6.18321585 4.50935723 -11 6 C-12.63893782 9.27787564 -12.74884833 12.48182577 -12 16 C-10.02928108 18.72675163 -10.02928108 18.72675163 -7 20 C-3.27293127 19.85384044 -1.65788293 19.65788293 1 17 C3.625 16.875 3.625 16.875 6 17 C4.59418135 20.39739506 3.11285464 22.05036999 0 24 C-4.03858253 24.79971931 -8.21567402 24.9504267 -11.9140625 22.98046875 C-14.44101223 20.92032008 -16.19494369 18.70758447 -18 16 C-18.47364652 11.18459376 -18.49199653 8.94885045 -16.25 4.625 C-11.78478985 -0.58441184 -6.5778568 -1.04459676 0 0 Z " fill="#F2EBF5" transform="translate(195,54)"/>
<path d="M0 0 C1.32 0 2.64 0 4 0 C4.33 2.97 4.66 5.94 5 9 C5.51949219 8.3503125 6.03898438 7.700625 6.57421875 7.03125 C7.62029297 5.77828125 7.62029297 5.77828125 8.6875 4.5 C9.37199219 3.6646875 10.05648437 2.829375 10.76171875 1.96875 C13 0 13 0 15.76953125 -0.28125 C16.87361328 -0.14203125 16.87361328 -0.14203125 18 0 C15.50127818 3.8373228 12.9156164 7.45960866 10 11 C11.29245312 15.73899479 14.06443825 18.28498285 17.5390625 21.546875 C18.26222656 22.26617187 18.26222656 22.26617187 19 23 C19 23.33 19 23.66 19 24 C15.9375 24.5625 15.9375 24.5625 12 24 C9.24862054 21.27517826 7.11251255 18.23618944 5 15 C4.67 17.97 4.34 20.94 4 24 C2.68 24 1.36 24 0 24 C0 16.08 0 8.16 0 0 Z " fill="#F5EFF7" transform="translate(190,13)"/>
<path d="M0 0 C2.08992655 1.59903682 2.88766045 2.500089 3.46875 5.0859375 C3.52707758 9.35843238 3.35277178 11.4654973 0.9375 15.125 C-2 17 -2 17 -5.625 17.0625 C-9 16 -9 16 -10.9375 14.5 C-12.56984406 10.65919045 -12.78788223 7.09698757 -12 3 C-8.4155313 -1.56205107 -5.39619856 -1.49894405 0 0 Z " fill="#6F1F8C" transform="translate(151,17)"/>
<path d="M0 0 C1.32091644 0.00045319 1.32091644 0.00045319 2.66851807 0.00091553 C4.08121979 0.03188324 4.08121979 0.03188324 5.52246094 0.06347656 C6.49342712 0.06913635 7.46439331 0.07479614 8.46478271 0.08062744 C11.56263763 0.10299845 14.65933127 0.15319683 17.75683594 0.20410156 C19.85838172 0.2241656 21.95994565 0.24241653 24.06152344 0.25878906 C29.21040763 0.30286576 34.35842497 0.37189898 39.50683594 0.45410156 C39.17683594 1.11410156 38.84683594 1.77410156 38.50683594 2.45410156 C37.28053467 2.46868408 36.0542334 2.4832666 34.79077148 2.49829102 C30.24506328 2.55622239 25.69985313 2.63345537 21.15454102 2.71655273 C19.18652423 2.74982642 17.21841145 2.77785071 15.25024414 2.80053711 C12.42259781 2.83403834 9.59583311 2.88635119 6.76855469 2.94238281 C5.88721359 2.94877274 5.0058725 2.95516266 4.0978241 2.96174622 C3.27719986 2.98154037 2.45657562 3.00133453 1.61108398 3.02172852 C0.52853584 3.0383831 0.52853584 3.0383831 -0.57588196 3.05537415 C-3.13008607 3.586559 -3.99154337 4.32765753 -5.49316406 6.45410156 C-5.95186041 8.87804658 -5.95186041 8.87804658 -5.89379883 11.62817383 C-5.91380699 13.20980064 -5.91380699 13.20980064 -5.93421936 14.82337952 C-5.93433517 15.96093185 -5.93445099 17.09848419 -5.93457031 18.27050781 C-5.94777817 19.43791 -5.96098602 20.60531219 -5.97459412 21.80809021 C-6.01557332 25.54428493 -6.03718975 29.28023252 -6.05566406 33.01660156 C-6.07940543 36.75646642 -6.10744801 40.49609685 -6.14744568 44.23582458 C-6.17190951 46.56505666 -6.18668093 48.8944137 -6.1910553 51.22377014 C-6.20124191 52.27503586 -6.21142853 53.32630157 -6.22192383 54.40942383 C-6.22619888 55.3374733 -6.23047394 56.26552277 -6.23487854 57.22169495 C-6.49316406 59.45410156 -6.49316406 59.45410156 -8.49316406 61.45410156 C-8.5858994 54.0914206 -8.65694642 46.72886583 -8.70041275 39.36571884 C-8.72127607 35.94656476 -8.74956912 32.52781062 -8.79492188 29.10888672 C-8.84675024 25.17713226 -8.86611984 21.24553899 -8.88378906 17.31347656 C-8.9044342 16.08731628 -8.92507935 14.86115601 -8.9463501 13.59783936 C-8.94665222 12.45695862 -8.94695435 11.31607788 -8.94726562 10.140625 C-8.96058929 8.63505035 -8.96058929 8.63505035 -8.97418213 7.09906006 C-8.04843636 2.0086917 -5.00650962 -0.05754609 0 0 Z " fill="#FDFCFD" transform="translate(26.4931640625,8.5458984375)"/>
<path d="M0 0 C1.98 0 3.96 0 6 0 C7.32 2.97 8.64 5.94 10 9 C11.65 6.03 13.3 3.06 15 0 C16.65 0 18.3 0 20 0 C18.98720295 3.46038992 17.90794774 6.14226258 15.9375 9.1875 C13.1649769 13.76370913 13.1891979 18.76867818 13 24 C11.35 24 9.7 24 8 24 C8.00902344 23.44054687 8.01804688 22.88109375 8.02734375 22.3046875 C7.71157379 13.76516932 4.0390364 7.31877615 0 0 Z " fill="#F1E9F4" transform="translate(209,13)"/>
<path d="M0 0 C4.29 0 8.58 0 13 0 C13 0.99 13 1.98 13 3 C10.03 3 7.06 3 4 3 C4 5.31 4 7.62 4 10 C6.64 10 9.28 10 12 10 C12 10.99 12 11.98 12 13 C9.36 13 6.72 13 4 13 C4 15.64 4 18.28 4 21 C6.97 21 9.94 21 13 21 C13 21.99 13 22.98 13 24 C8.71 24 4.42 24 0 24 C0 16.08 0 8.16 0 0 Z " fill="#FBFAFC" transform="translate(118,13)"/>
<path d="M0 0 C4.95 0 9.9 0 15 0 C15 0.99 15 1.98 15 3 C11.37 3 7.74 3 4 3 C4 5.31 4 7.62 4 10 C6.64 10 9.28 10 12 10 C12 11.32 12 12.64 12 14 C9.36 14 6.72 14 4 14 C4 17.3 4 20.6 4 24 C2.68 24 1.36 24 0 24 C0 16.08 0 8.16 0 0 Z " fill="#F7F3F8" transform="translate(128,54)"/>
<path d="M0 0 C1.65 0 3.3 0 5 0 C5 6.93 5 13.86 5 21 C7.64 21 10.28 21 13 21 C13 21.99 13 22.98 13 24 C8.71 24 4.42 24 0 24 C0 16.08 0 8.16 0 0 Z " fill="#EFE6F2" transform="translate(103,13)"/>
<path d="M0 0 C1.32 0 2.64 0 4 0 C4 7.92 4 15.84 4 24 C2.68 24 1.36 24 0 24 C0 16.08 0 8.16 0 0 Z " fill="#F9F5FA" transform="translate(169,54)"/>
<path d="M0 0 C2.31 0.33 4.62 0.66 7 1 C7.625 3.375 7.625 3.375 8 6 C6 8 6 8 2.875 8.125 C1.451875 8.063125 1.451875 8.063125 0 8 C0 5.36 0 2.72 0 0 Z " fill="#70208D" transform="translate(151,57)"/>
<path d="M0 0 C0.66 0 1.32 0 2 0 C2.66 3.3 3.32 6.6 4 10 C1.69 10 -0.62 10 -3 10 C-2.01 6.7 -1.02 3.4 0 0 Z " fill="#843F9C" transform="translate(215,60)"/>
<path d="M0 0 C0.99 0.33 1.98 0.66 3 1 C3.33 3.31 3.66 5.62 4 8 C2.02 8 0.04 8 -2 8 C-1.47731534 5.23723823 -0.89130413 2.6739124 0 0 Z " fill="#7E3698" transform="translate(112,62)"/>
<path d="M0 0 C-1.04874998 2.62187494 -1.64931313 3.79371361 -4.125 5.25 C-4.74375 5.4975 -5.3625 5.745 -6 6 C-3.84615385 0 -3.84615385 0 0 0 Z " fill="#E9DDED" transform="translate(92,77)"/>
</svg>
