<?xml version="1.0" encoding="UTF-8"?>
<svg version="1.1" xmlns="http://www.w3.org/2000/svg" width="130" height="130">
<path d="M0 0 C42.9 0 85.8 0 130 0 C130 42.9 130 85.8 130 130 C87.1 130 44.2 130 0 130 C0 87.1 0 44.2 0 0 Z " fill="#F6F5F6" transform="translate(0,0)"/>
<path d="M0 0 C9.93554422 5.1837622 13.37843178 12.66375702 17.875 22.5 C18.205 14.91 18.535 7.32 18.875 -0.5 C28.347345 1.86808625 35.39284299 6.3314645 40.875 14.5 C42.80939066 18.4158468 44.42558187 22.38170136 45.875 26.5 C46.05933594 25.67757812 46.24367188 24.85515625 46.43359375 24.0078125 C49.0533197 13.9247784 53.68039241 6.44620663 62.6875 0.875 C65.875 -0.5 65.875 -0.5 69.875 -0.5 C69.875 23.59 69.875 47.68 69.875 72.5 C61.91643217 70.90828643 56.53820907 66.10621285 51.875 59.5 C49.03363199 54.25882792 47.38019201 49.43600616 46.875 43.5 C46.215 43.5 45.555 43.5 44.875 43.5 C44.7925 44.469375 44.71 45.43875 44.625 46.4375 C43.25902511 55.71864444 37.97012205 63.77716177 31.125 70 C28.875 71.5 28.875 71.5 26.875 71.5 C26.875 75.13 26.875 78.76 26.875 82.5 C24.235 82.5 21.595 82.5 18.875 82.5 C18.545 71.94 18.215 61.38 17.875 50.5 C15.4 55.45 15.4 55.45 12.875 60.5 C10.59375 63.59375 10.59375 63.59375 8.375 66 C7.6428125 66.8146875 6.910625 67.629375 6.15625 68.46875 C3.71553999 70.64198494 2.07685225 71.8146035 -1.125 72.5 C-8.74484412 68.85969776 -13.99346537 61.76854456 -16.9375 54.0625 C-17.5253125 52.2990625 -17.5253125 52.2990625 -18.125 50.5 C-18.15078125 51.08007812 -18.1765625 51.66015625 -18.203125 52.2578125 C-18.59910462 57.71153183 -19.38629728 61.26936272 -23.125 65.5 C-28.60215804 69.55309695 -33.39664101 70.22924109 -40.125 70.5 C-40.125 68.19 -40.125 65.88 -40.125 63.5 C-39.07699219 63.10167969 -39.07699219 63.10167969 -38.0078125 62.6953125 C-37.09773438 62.34210938 -36.18765625 61.98890625 -35.25 61.625 C-34.34507813 61.27695313 -33.44015625 60.92890625 -32.5078125 60.5703125 C-30.00282993 59.61469105 -30.00282993 59.61469105 -28.125 57.5 C-27.76660992 55.30192417 -27.76660992 55.30192417 -27.8125 52.8125 C-27.79574219 51.98363281 -27.77898438 51.15476563 -27.76171875 50.30078125 C-28.50260295 44.58880303 -31.5394243 39.65592155 -34.23510742 34.65185547 C-40.44891527 22.96206786 -40.44891527 22.96206786 -39.125 15.5 C-37.29986604 10.02459813 -33.79507758 6.69949996 -29.125 3.5 C-25.38959107 1.88864713 -23.22630359 1.5 -19.125 1.5 C-19.125 4.14 -19.125 6.78 -19.125 9.5 C-19.66769531 9.67015625 -20.21039062 9.8403125 -20.76953125 10.015625 C-23.96809317 11.09910183 -26.56392457 12.009059 -29.125 14.25 C-30.59620076 17.56020172 -30.43942085 19.87873922 -30.125 23.5 C-28.91738236 26.6172561 -27.33678253 29.47186231 -25.6875 32.375 C-25.05618164 33.53128906 -25.05618164 33.53128906 -24.41210938 34.7109375 C-22.57506524 38.32489834 -22.57506524 38.32489834 -20.125 41.5 C-20.15980469 40.70078125 -20.19460937 39.9015625 -20.23046875 39.078125 C-20.55850931 25.76905067 -18.29514038 15.43196779 -9.25 5.42578125 C-3.22782982 -0.75948937 -3.22782982 -0.75948937 0 0 Z " fill="#485C90" transform="translate(50.125,10.5)"/>
<path d="M0 0 C9.52381543 4.96894718 14.08063445 12.78379226 17.875 22.5 C18.70712308 25.74796427 18.93145053 28.11296797 18.875 31.5 C18.215 32.16 17.555 32.82 16.875 33.5 C15.885 29.54 14.895 25.58 13.875 21.5 C13.38 23.975 13.38 23.975 12.875 26.5 C11.33852175 24.19528263 10.21273241 22.16906524 9.0625 19.6875 C6.80902188 15.14703479 4.34953477 10.96925502 -0.125 8.3125 C-3.56136508 8.63465923 -4.98715823 10.96834527 -7.125 13.5 C-7.82085409 14.81833581 -8.49444123 16.14921584 -9.125 17.5 C-8.7218457 17.97832275 -8.31869141 18.45664551 -7.90332031 18.94946289 C-6.0548541 21.14909521 -4.21490819 23.35570535 -2.375 25.5625 C-1.74078125 26.31466797 -1.1065625 27.06683594 -0.453125 27.84179688 C3.17587027 32.20793181 6.23120257 36.47277912 8.875 41.5 C8.545 41.83 8.215 42.16 7.875 42.5 C9.195 42.5 10.515 42.5 11.875 42.5 C12.205 37.88 12.535 33.26 12.875 28.5 C13.535 28.5 14.195 28.5 14.875 28.5 C14.875 31.8 14.875 35.1 14.875 38.5 C15.535 38.5 16.195 38.5 16.875 38.5 C17.205 37.18 17.535 35.86 17.875 34.5 C17.875 35.16 17.875 35.82 17.875 36.5 C18.535 36.5 19.195 36.5 19.875 36.5 C18.5022872 50.71884602 14.75766866 60.80995256 3.875 70.5 C1.375 71.96484375 1.375 71.96484375 -1.125 72.5 C-8.74484412 68.85969776 -13.99346537 61.76854456 -16.9375 54.0625 C-17.5253125 52.2990625 -17.5253125 52.2990625 -18.125 50.5 C-18.15078125 51.08007812 -18.1765625 51.66015625 -18.203125 52.2578125 C-18.59910462 57.71153183 -19.38629728 61.26936272 -23.125 65.5 C-28.60215804 69.55309695 -33.39664101 70.22924109 -40.125 70.5 C-40.125 68.19 -40.125 65.88 -40.125 63.5 C-39.07699219 63.10167969 -39.07699219 63.10167969 -38.0078125 62.6953125 C-37.09773438 62.34210938 -36.18765625 61.98890625 -35.25 61.625 C-34.34507813 61.27695313 -33.44015625 60.92890625 -32.5078125 60.5703125 C-30.00282993 59.61469105 -30.00282993 59.61469105 -28.125 57.5 C-27.76660992 55.30192417 -27.76660992 55.30192417 -27.8125 52.8125 C-27.79574219 51.98363281 -27.77898438 51.15476563 -27.76171875 50.30078125 C-28.50260295 44.58880303 -31.5394243 39.65592155 -34.23510742 34.65185547 C-40.44891527 22.96206786 -40.44891527 22.96206786 -39.125 15.5 C-37.29986604 10.02459813 -33.79507758 6.69949996 -29.125 3.5 C-25.38959107 1.88864713 -23.22630359 1.5 -19.125 1.5 C-19.125 4.14 -19.125 6.78 -19.125 9.5 C-19.66769531 9.67015625 -20.21039062 9.8403125 -20.76953125 10.015625 C-23.96809317 11.09910183 -26.56392457 12.009059 -29.125 14.25 C-30.59620076 17.56020172 -30.43942085 19.87873922 -30.125 23.5 C-28.91738236 26.6172561 -27.33678253 29.47186231 -25.6875 32.375 C-25.05618164 33.53128906 -25.05618164 33.53128906 -24.41210938 34.7109375 C-22.57506524 38.32489834 -22.57506524 38.32489834 -20.125 41.5 C-20.15980469 40.70078125 -20.19460937 39.9015625 -20.23046875 39.078125 C-20.55850931 25.76905067 -18.29514038 15.43196779 -9.25 5.42578125 C-3.22782982 -0.75948937 -3.22782982 -0.75948937 0 0 Z " fill="#5C6A9F" transform="translate(50.125,10.5)"/>
<path d="M0 0 C0.99 0.33 1.98 0.66 3 1 C2.34 1 1.68 1 1 1 C1.495 15.355 1.495 15.355 2 30 C2.33 26.04 2.66 22.08 3 18 C3.99 18 4.98 18 6 18 C6.02700675 20.91672884 6.04684237 23.83320677 6.0625 26.75 C6.07087891 27.575 6.07925781 28.4 6.08789062 29.25 C6.09111328 30.04921875 6.09433594 30.8484375 6.09765625 31.671875 C6.10289307 32.4050293 6.10812988 33.13818359 6.11352539 33.89355469 C6 36 6 36 5.43139648 38.20800781 C5.28903564 38.79936523 5.1466748 39.39072266 5 40 C5.33 40.33 5.66 40.66 6 41 C6.0165911 42.41844613 5.9633054 43.83787607 5.87890625 45.25390625 C5.83056641 46.10791016 5.78222656 46.96191406 5.73242188 47.84179688 C5.67634766 48.73962891 5.62027344 49.63746094 5.5625 50.5625 C5.51029297 51.46419922 5.45808594 52.36589844 5.40429688 53.29492188 C5.27419751 55.5302655 5.13922064 57.7652089 5 60 C5.66 60 6.32 60 7 60 C7 43.5 7 27 7 10 C10.7451126 11.8725563 11.75165931 12.5702832 14.0625 15.75 C14.54847656 16.40484375 15.03445312 17.0596875 15.53515625 17.734375 C19.60668401 24.03167127 20.58161023 28.73395376 20.5625 36.125 C20.56080811 37.05699219 20.55911621 37.98898438 20.55737305 38.94921875 C20.35086808 46.89448022 18.74160158 52.47888999 14 59 C13.57074219 59.59167969 13.14148438 60.18335938 12.69921875 60.79296875 C10.54116039 63.30250241 8.90715615 64.02277302 5.6875 64.8125 C4.800625 64.874375 3.91375 64.93625 3 65 C1.80712265 56.94807789 1.31072395 49.02406125 3 41 C2.34 41 1.68 41 1 41 C1 54.86 1 68.72 1 83 C0.67 83 0.34 83 0 83 C-0.1934951 77.73509779 -0.37201103 72.46997089 -0.53710938 67.20410156 C-0.59524201 65.41555416 -0.6573522 63.62713118 -0.72363281 61.83886719 C-0.81860346 59.25739221 -0.89890859 56.67579713 -0.9765625 54.09375 C-1.00875885 53.30383667 -1.0409552 52.51392334 -1.0741272 51.70007324 C-1.21381541 46.43585708 -0.47650556 42.05942521 1 37 C0.34 37 -0.32 37 -1 37 C-1.33 37.66 -1.66 38.32 -2 39 C-2.66 39 -3.32 39 -4 39 C-4 35.7 -4 32.4 -4 29 C-4.66 29 -5.32 29 -6 29 C-6 33.62 -6 38.24 -6 43 C-7.32 43.66 -8.64 44.32 -10 45 C-12.25 44.125 -12.25 44.125 -14 43 C-13.01 42.34 -12.02 41.68 -11 41 C-16.91667937 33.26466919 -22.87830483 25.57517029 -29 18 C-27.25399339 14.22637281 -25.10159421 11.79899966 -22 9 C-21.01 8.67 -20.02 8.34 -19 8 C-13.45228623 11.6180742 -10.88752384 16.14442376 -8 22 C-7.67 22.66 -7.34 23.32 -7 24 C-6.34 22.68 -5.68 21.36 -5 20 C-3.68 23.96 -2.36 27.92 -1 32 C-0.67 21.44 -0.34 10.88 0 0 Z " fill="#848EB7" transform="translate(69,10)"/>
<path d="M0 0 C2.125 1.875 2.125 1.875 2.4375 5.0625 C2.334375 5.990625 2.23125 6.91875 2.125 7.875 C1.135 7.875 0.145 7.875 -0.875 7.875 C-1.37 6.39 -1.37 6.39 -1.875 4.875 C-4.185 4.875 -6.495 4.875 -8.875 4.875 C-8.875 5.865 -8.875 6.855 -8.875 7.875 C-8.16472656 8.15214844 -7.45445313 8.42929688 -6.72265625 8.71484375 C-5.80355469 9.07707031 -4.88445312 9.43929687 -3.9375 9.8125 C-3.02097656 10.17214844 -2.10445312 10.53179687 -1.16015625 10.90234375 C1.125 11.875 1.125 11.875 2.125 12.875 C2.58862579 18.2066966 2.58862579 18.2066966 0.95703125 20.55859375 C-1.58237368 22.38328344 -3.34501167 22.17368134 -6.4375 22.0625 C-7.89349609 22.02189453 -7.89349609 22.02189453 -9.37890625 21.98046875 C-10.20261719 21.94566406 -11.02632812 21.91085938 -11.875 21.875 C-12.535 21.875 -13.195 21.875 -13.875 21.875 C-15.27864619 21.86332391 -16.68229196 21.85159783 -18.0859375 21.83984375 C-19.80729053 21.83051753 -21.52864477 21.82141234 -23.25 21.8125 C-24.11367187 21.80412109 -24.97734375 21.79574219 -25.8671875 21.78710938 C-26.7025 21.78388672 -27.5378125 21.78066406 -28.3984375 21.77734375 C-29.16075684 21.77210693 -29.92307617 21.76687012 -30.70849609 21.76147461 C-32.89249421 21.8759167 -34.76567154 22.3224412 -36.875 22.875 C-38.95734592 22.94243348 -41.04168557 22.96014472 -43.125 22.9375 C-44.20265625 22.92847656 -45.2803125 22.91945313 -46.390625 22.91015625 C-47.21046875 22.89855469 -48.0303125 22.88695313 -48.875 22.875 C-51.30271689 17.21032726 -52.58345116 13.04864578 -51.875 6.875 C-50.08136089 4.0649654 -48.85619065 2.36559532 -45.875 0.875 C-41.3661382 0.61978141 -37.90603543 0.74092242 -33.875 2.875 C-33.545 3.535 -33.215 4.195 -32.875 4.875 C-32.215 3.885 -31.555 2.895 -30.875 1.875 C-28.0864711 1.65392213 -25.52846819 1.59392465 -22.75 1.6875 C-21.99589844 1.70103516 -21.24179688 1.71457031 -20.46484375 1.72851562 C-18.60125873 1.76390015 -16.73804022 1.81770833 -14.875 1.875 C-14.875 1.215 -14.875 0.555 -14.875 -0.125 C-9.61896055 -1.12615037 -5.08376145 -1.98929796 0 0 Z " fill="#FADADA" transform="translate(116.875,98.125)"/>
<path d="M0 0 C0 2.64 0 5.28 0 8 C-0.54269531 8.17015625 -1.08539062 8.3403125 -1.64453125 8.515625 C-4.84309317 9.59910183 -7.43892457 10.509059 -10 12.75 C-11.47050497 16.05863617 -11.31480966 18.38149821 -11 22 C-9.79049849 25.07524458 -8.20781119 27.88880634 -6.5625 30.75 C-5.72875919 32.24383881 -4.89665767 33.73859403 -4.06640625 35.234375 C-3.69459229 35.88631836 -3.32277832 36.53826172 -2.93969727 37.20996094 C-2 39 -2 39 -1 42 C-0.67 40.35 -0.34 38.7 0 37 C0.66 37 1.32 37 2 37 C2.12117188 37.61746094 2.24234375 38.23492187 2.3671875 38.87109375 C3.50074568 44.5999224 4.71369966 50.30352707 6 56 C6.66 56 7.32 56 8 56 C8.66 57.65 9.32 59.3 10 61 C9.01 61 8.02 61 7 61 C4.68336156 57.06171464 2.56641751 53.30764815 1 49 C0.97421875 49.58007812 0.9484375 50.16015625 0.921875 50.7578125 C0.52589538 56.21153183 -0.26129728 59.76936272 -4 64 C-9.47715804 68.05309695 -14.27164101 68.72924109 -21 69 C-21 66.69 -21 64.38 -21 62 C-19.95199219 61.60167969 -19.95199219 61.60167969 -18.8828125 61.1953125 C-17.97273438 60.84210938 -17.06265625 60.48890625 -16.125 60.125 C-15.22007813 59.77695313 -14.31515625 59.42890625 -13.3828125 59.0703125 C-10.87782993 58.11469105 -10.87782993 58.11469105 -9 56 C-8.64160992 53.80192417 -8.64160992 53.80192417 -8.6875 51.3125 C-8.67074219 50.48363281 -8.65398438 49.65476563 -8.63671875 48.80078125 C-9.37760295 43.08880303 -12.4144243 38.15592155 -15.11010742 33.15185547 C-21.32391527 21.46206786 -21.32391527 21.46206786 -20 14 C-18.17486604 8.52459813 -14.67007758 5.19949996 -10 2 C-6.26459107 0.38864713 -4.10130359 0 0 0 Z " fill="#304585" transform="translate(31,12)"/>
<path d="M0 0 C0 24.09 0 48.18 0 73 C-1.65 72.67 -3.3 72.34 -5 72 C-5.495 71.01 -5.495 71.01 -6 70 C-5.01 70 -4.02 70 -3 70 C-3.556875 69.443125 -4.11375 68.88625 -4.6875 68.3125 C-5.450625 67.549375 -6.21375 66.78625 -7 66 C-7.845625 65.175 -8.69125 64.35 -9.5625 63.5 C-15 57.92307692 -15 57.92307692 -15 55 C-10.30535551 55.52162717 -9.87485597 57.12514403 -6 61 C-6 44.17 -6 27.34 -6 10 C-6.66 10 -7.32 10 -8 10 C-8.27714844 10.556875 -8.55429688 11.11375 -8.83984375 11.6875 C-9.63627621 13.27500173 -10.44144722 14.8581404 -11.25390625 16.4375 C-11.68574219 17.283125 -12.11757812 18.12875 -12.5625 19 C-12.99691406 19.845625 -13.43132812 20.69125 -13.87890625 21.5625 C-15.89054189 25.93623044 -16.22691616 29.9559451 -16.5625 34.75 C-16.64628906 35.92046875 -16.73007813 37.0909375 -16.81640625 38.296875 C-16.87699219 39.18890625 -16.93757813 40.0809375 -17 41 C-17.99 40.67 -18.98 40.34 -20 40 C-20.33 38.35 -20.66 36.7 -21 35 C-21.99 35.99 -22.98 36.98 -24 38 C-23.69389031 25.52603003 -22.78415277 16.31360513 -13.93359375 6.796875 C-9.62580985 2.79368188 -5.97036287 0 0 0 Z " fill="#3D4F89" transform="translate(120,10)"/>
<path d="M0 0 C0.66 0 1.32 0 2 0 C2 16.83 2 33.66 2 51 C-2 49 -2 49 -4 46 C-4.99 45.67 -5.98 45.34 -7 45 C-6.09232898 46.44319692 -5.17343894 47.87934106 -4.25 49.3125 C-3.73953125 50.11300781 -3.2290625 50.91351563 -2.703125 51.73828125 C-0.99722239 54.00368861 0.65808145 55.42684167 3 57 C3.99 56.505 3.99 56.505 5 56 C5 57.32 5 58.64 5 60 C3.3125 60.74609375 3.3125 60.74609375 1 61 C-5.53498696 56.73759665 -10.25513387 51.26112843 -13 44 C-13.4125 43.113125 -13.825 42.22625 -14.25 41.3125 C-15.0789278 38.75663929 -15.1525865 36.67026367 -15 34 C-15.66 34 -16.32 34 -17 34 C-17.05383848 31.54137599 -17.09359038 29.0839245 -17.125 26.625 C-17.14175781 25.92632812 -17.15851563 25.22765625 -17.17578125 24.5078125 C-17.19344267 22.67102514 -17.10303261 20.83398037 -17 19 C-16.34 18.34 -15.68 17.68 -15 17 C-15 20.3 -15 23.6 -15 27 C-14.01 23.535 -14.01 23.535 -13 20 C-12.67 20 -12.34 20 -12 20 C-12 23.3 -12 26.6 -12 30 C-11.34 30 -10.68 30 -10 30 C-9.91363281 28.96101563 -9.82726562 27.92203125 -9.73828125 26.8515625 C-8.75513372 16.59926564 -6.8392159 8.09763162 0 0 Z " fill="#5B6BA1" transform="translate(112,20)"/>
<path d="M0 0 C9.52381543 4.96894718 14.08063445 12.78379226 17.875 22.5 C18.70712308 25.74796427 18.93145053 28.11296797 18.875 31.5 C18.215 32.16 17.555 32.82 16.875 33.5 C15.885 29.54 14.895 25.58 13.875 21.5 C13.38 23.975 13.38 23.975 12.875 26.5 C11.33852175 24.19528263 10.21273241 22.16906524 9.0625 19.6875 C6.80902188 15.14703479 4.34953477 10.96925502 -0.125 8.3125 C-3.56136508 8.63465923 -4.98715823 10.96834527 -7.125 13.5 C-7.82085409 14.81833581 -8.49444123 16.14921584 -9.125 17.5 C-8.7218457 17.97832275 -8.31869141 18.45664551 -7.90332031 18.94946289 C-6.0548541 21.14909521 -4.21490819 23.35570535 -2.375 25.5625 C-1.74078125 26.31466797 -1.1065625 27.06683594 -0.453125 27.84179688 C3.17587027 32.20793181 6.23120257 36.47277912 8.875 41.5 C8.25625 41.7475 7.6375 41.995 7 42.25 C4.50019797 43.72047178 4.04183978 44.91403076 2.875 47.5 C1.14554511 45.45857689 -0.58357048 43.41686798 -2.3125 41.375 C-2.79525391 40.80523437 -3.27800781 40.23546875 -3.77539062 39.6484375 C-6.90934695 35.94658305 -10.024374 32.22982068 -13.125 28.5 C-13.785 29.16 -14.445 29.82 -15.125 30.5 C-16.45832095 27.8333581 -15.79602033 26.33319697 -15.125 23.5 C-17.39904729 25.77404729 -17.09498139 30.73146402 -17.52734375 33.8125 C-17.72457031 34.699375 -17.92179687 35.58625 -18.125 36.5 C-19.115 36.995 -19.115 36.995 -20.125 37.5 C-20.7524029 24.95194202 -17.71413993 14.78923605 -9.25 5.42578125 C-3.22782982 -0.75948937 -3.22782982 -0.75948937 0 0 Z " fill="#384786" transform="translate(50.125,10.5)"/>
<path d="M0 0 C2.75329021 1.79562405 4.52627461 3.05254922 6 6 C6.64078211 10.5770151 6.75569675 14.6878794 4 18.5625 C0.56604103 21.35259166 -0.82659716 21.59742964 -5.0703125 21.28515625 C-6.68284571 21.04686693 -8.28215902 20.72126978 -9.875 20.375 C-10.57625 20.25125 -11.2775 20.1275 -12 20 C-12.66 20.66 -13.32 21.32 -14 22 C-18.34395071 22.27917421 -22.64350967 22.08542138 -27 22 C-27 15.07 -27 8.14 -27 1 C-25.35 1 -23.7 1 -22 1 C-22 5.95 -22 10.9 -22 16 C-18.535 15.505 -18.535 15.505 -15 15 C-14.67 12.03 -14.34 9.06 -14 6 C-13.01 5.67 -12.02 5.34 -11 5 C-10.67 4.01 -10.34 3.02 -10 2 C-6.2626144 -0.4915904 -4.42668417 -0.45793285 0 0 Z " fill="#FEE1E1" transform="translate(37,99)"/>
<path d="M0 0 C2.125 1.875 2.125 1.875 2.4375 5.0625 C2.334375 5.990625 2.23125 6.91875 2.125 7.875 C1.135 7.875 0.145 7.875 -0.875 7.875 C-1.205 6.885 -1.535 5.895 -1.875 4.875 C-4.185 4.875 -6.495 4.875 -8.875 4.875 C-8.875 5.865 -8.875 6.855 -8.875 7.875 C-8.16472656 8.15214844 -7.45445313 8.42929688 -6.72265625 8.71484375 C-5.80355469 9.07707031 -4.88445312 9.43929687 -3.9375 9.8125 C-3.02097656 10.17214844 -2.10445312 10.53179687 -1.16015625 10.90234375 C1.125 11.875 1.125 11.875 2.125 12.875 C2.58896917 18.21064547 2.58896917 18.21064547 0.94921875 20.55859375 C-1.55936014 22.36885304 -3.25074331 22.17466748 -6.3125 22.0625 C-7.73369141 22.02189453 -7.73369141 22.02189453 -9.18359375 21.98046875 C-10.07175781 21.94566406 -10.95992187 21.91085938 -11.875 21.875 C-13.195 21.875 -14.515 21.875 -15.875 21.875 C-15.875 20.885 -15.875 19.895 -15.875 18.875 C-19.505 18.875 -23.135 18.875 -26.875 18.875 C-26.875 16.895 -26.875 14.915 -26.875 12.875 C-23.575 12.875 -20.275 12.875 -16.875 12.875 C-16.875 11.885 -16.875 10.895 -16.875 9.875 C-20.175 9.875 -23.475 9.875 -26.875 9.875 C-26.875 7.895 -26.875 5.915 -26.875 3.875 C-23.245 3.875 -19.615 3.875 -15.875 3.875 C-15.545 2.555 -15.215 1.235 -14.875 -0.125 C-9.61896055 -1.12615037 -5.08376145 -1.98929796 0 0 Z " fill="#FBEDEE" transform="translate(116.875,98.125)"/>
<path d="M0 0 C0.66 0 1.32 0 2 0 C2 3.3 2 6.6 2 10 C2.66 10 3.32 10 4 10 C4.33 8.68 4.66 7.36 5 6 C5 6.66 5 7.32 5 8 C5.66 8 6.32 8 7 8 C5.6272872 22.21884602 1.88266866 32.30995256 -9 42 C-11.54296875 43.4296875 -11.54296875 43.4296875 -14 44 C-16.01953125 43.1015625 -16.01953125 43.1015625 -17.8125 41.625 C-18.71935547 40.90183594 -18.71935547 40.90183594 -19.64453125 40.1640625 C-20.31548828 39.58785156 -20.31548828 39.58785156 -21 39 C-20 36 -20 36 -19 35 C-19.66 34.21625 -20.32 33.4325 -21 32.625 C-23 30 -23 30 -23 28 C-20.39619281 29.11591737 -18.93900464 30.06671367 -17 32.1875 C-15.21021511 34.20245385 -15.21021511 34.20245385 -13.0625 34.0625 C-10.00878732 32.48937529 -8.13439716 30.68324214 -6 28 C-5.99364754 25.36462492 -5.99364754 25.36462492 -7 23 C-7.33 22.01 -7.66 21.02 -8 20 C-7.34 19.67 -6.68 19.34 -6 19 C-6.66 18.67 -7.32 18.34 -8 18 C-8 17.01 -8 16.02 -8 15 C-5 14 -5 14 -1 14 C-0.67 9.38 -0.34 4.76 0 0 Z " fill="#32457F" transform="translate(63,39)"/>
<path d="M0 0 C0.66 0 1.32 0 2 0 C2 7.92 2 15.84 2 24 C8.41838873 21.58919604 8.41838873 21.58919604 12.25 17.25 C12.73726562 16.55261719 13.22453125 15.85523437 13.7265625 15.13671875 C14.91499704 13.14262767 15.79551405 11.22540692 16.625 9.0625 C18 6 18 6 20.1875 5.0625 C20.785625 5.041875 21.38375 5.02125 22 5 C22.33 5.66 22.66 6.32 23 7 C23.66 6.67 24.32 6.34 25 6 C22.70032375 16.29378895 17.74819825 24.89660587 9 31 C8.34 31 7.68 31 7 31 C7 34.63 7 38.26 7 42 C4.69 42 2.38 42 0 42 C0 28.14 0 14.28 0 0 Z " fill="#6374A4" transform="translate(70,51)"/>
<path d="M0 0 C5.66153846 5.66153846 5.66153846 5.66153846 7.25 9 C7.56453125 9.639375 7.8790625 10.27875 8.203125 10.9375 C12.16387166 21.18884429 10.12910276 32.15367804 6 42 C4.48821513 44.42588735 3.09256218 46.02054929 1 48 C0.67 48 0.34 48 0 48 C0 32.16 0 16.32 0 0 Z " fill="#CD282D" transform="translate(78,23)"/>
<path d="M0 0 C9.52381543 4.96894718 14.08063445 12.78379226 17.875 22.5 C18.70712308 25.74796427 18.93145053 28.11296797 18.875 31.5 C18.215 32.16 17.555 32.82 16.875 33.5 C15.885 29.54 14.895 25.58 13.875 21.5 C13.545 23.15 13.215 24.8 12.875 26.5 C11.33852175 24.19528263 10.21273241 22.16906524 9.0625 19.6875 C6.80902188 15.14703479 4.34953477 10.96925502 -0.125 8.3125 C-3.44703096 8.6239404 -4.9375138 11.14424563 -7.125 13.5 C-8.115 13.83 -9.105 14.16 -10.125 14.5 C-11.84067661 18.00294871 -11.84067661 18.00294871 -13.125 21.5 C-13.785 21.5 -14.445 21.5 -15.125 21.5 C-15.125 13.1909854 -13.29845825 9.58280098 -7.5 3.6875 C-3.04695531 -0.71693066 -3.04695531 -0.71693066 0 0 Z " fill="#596DA2" transform="translate(50.125,10.5)"/>
<path d="M0 0 C3.74169367 3.64662341 7.19522172 7.44440301 10.5625 11.4375 C11.26536133 12.25831055 11.26536133 12.25831055 11.98242188 13.09570312 C14.93340357 16.58322694 17.53430353 20.1535135 20 24 C17.03 27.465 17.03 27.465 14 31 C8.4493884 29.6123471 6.86675978 26.77537792 4 22 C0.38908998 14.65633944 -0.56568559 8.12387355 0 0 Z " fill="#CF2628" transform="translate(37,41)"/>
<path d="M0 0 C10.02272727 -0.47727273 10.02272727 -0.47727273 13.6875 1.3125 C15.86295508 5.76700325 15.68397695 10.1533246 15 15 C13.6875 17.6875 13.6875 17.6875 11 19 C7.26581176 19.30625717 3.76174544 19.17913074 0 19 C0 12.73 0 6.46 0 0 Z " fill="#F9F4F5" transform="translate(47,100)"/>
<path d="M0 0 C5.83696246 2.60961389 9.5700043 7.19318643 11.875 13.125 C13.6061114 18.96623554 13.25162052 24.97042681 13 31 C9.07127356 27.23556576 5.69742355 23.2411338 2.375 18.9375 C1.89804687 18.32583984 1.42109375 17.71417969 0.9296875 17.08398438 C-1.41009636 14.07801205 -3.72779887 11.05755923 -6 8 C-4.55746343 4.63408134 -2.66735273 2.48952921 0 0 Z " fill="#CC282C" transform="translate(48,20)"/>
<path d="M0 0 C0.33 0 0.66 0 1 0 C1 14.19 1 28.38 1 43 C-6.08946806 35.91053194 -6.5231421 28.50201452 -6.57519531 18.828125 C-6.35097422 11.46875879 -4.06613442 6.17181117 0 0 Z " fill="#CE252A" transform="translate(111,24)"/>
<path d="M0 0 C1.32 0 2.64 0 4 0 C4 24.09 4 48.18 4 73 C3.01 72.67 2.02 72.34 1 72 C1.66 72 2.32 72 3 72 C2.67 64.08 2.34 56.16 2 48 C2 53.61 2 59.22 2 65 C1.34 65 0.68 65 0 65 C0 45.53 0 26.06 0 6 C-1.65 6.33 -3.3 6.66 -5 7 C-3.75 5.4375 -3.75 5.4375 -2 4 C0.1875 4.3125 0.1875 4.3125 2 5 C2 3.68 2 2.36 2 1 C1.34 0.67 0.68 0.34 0 0 Z " fill="#7182AE" transform="translate(116,10)"/>
<path d="M0 0 C0.33 0 0.66 0 1 0 C2.42380402 19.69230482 1.69622281 39.29421059 1 59 C1.66 59 2.32 59 3 59 C2.9278125 58.17757812 2.855625 57.35515625 2.78125 56.5078125 C1.20792079 37.58415842 1.20792079 37.58415842 4 32 C4 43.22 4 54.44 4 66 C2.35 65.67 0.7 65.34 -1 65 C0.485 64.505 0.485 64.505 2 64 C1.443125 63.443125 0.88625 62.88625 0.3125 62.3125 C-0.450625 61.549375 -1.21375 60.78625 -2 60 C-2.845625 59.175 -3.69125 58.35 -4.5625 57.5 C-10 51.92307692 -10 51.92307692 -10 49 C-5.73879185 49.47346757 -3.86533763 52.02061908 -1 55 C-1.00222061 54.3257045 -1.00444122 53.651409 -1.00672913 52.9566803 C-1.02877929 45.96567309 -1.04390547 38.97467569 -1.05493164 31.98364258 C-1.05997377 29.37133381 -1.06680725 26.75902789 -1.07543945 24.14672852 C-1.08751036 20.40119732 -1.09322935 16.65570328 -1.09765625 12.91015625 C-1.10281754 11.73413345 -1.10797882 10.55811066 -1.11329651 9.34645081 C-1.11337204 8.26540573 -1.11344757 7.18436066 -1.11352539 6.07055664 C-1.115746 5.11347305 -1.11796661 4.15638947 -1.12025452 3.17030334 C-1 1 -1 1 0 0 Z " fill="#2F4381" transform="translate(115,16)"/>
<path d="M0 0 C1.32 0.33 2.64 0.66 4 1 C4.61898212 12.58872077 4.61898212 12.58872077 2.4375 17.5625 C-3.54500513 23.54500513 -8.77941223 24.66919164 -17 25 C-17 22.69 -17 20.38 -17 18 C-16.33613281 17.78085938 -15.67226562 17.56171875 -14.98828125 17.3359375 C-8.96910531 15.17430643 -5.61704333 13.30499689 -2 8 C-1.01 8.33 -0.02 8.66 1 9 C0.67 6.03 0.34 3.06 0 0 Z " fill="#364988" transform="translate(27,56)"/>
<path d="M0 0 C3.7451126 1.8725563 4.75165931 2.5702832 7.0625 5.75 C7.79146484 6.73226563 7.79146484 6.73226563 8.53515625 7.734375 C12.60668401 14.03167127 13.58161023 18.73395376 13.5625 26.125 C13.56080811 27.05699219 13.55911621 27.98898438 13.55737305 28.94921875 C13.31437723 38.29846245 10.67771525 45.26585566 4.25 52.25 C2 54 2 54 0 54 C0 36.18 0 18.36 0 0 Z M2 3 C2 18.84 2 34.68 2 51 C6.59275434 46.57817496 6.59275434 46.57817496 9.25 41.5 C9.56453125 40.7678125 9.8790625 40.035625 10.203125 39.28125 C13.41070618 30.09876269 12.97164998 19.86320418 9 11 C7.21267491 8.13748716 5.30434169 5.46992312 3 3 C2.67 3 2.34 3 2 3 Z " fill="#E8CDE0" transform="translate(76,20)"/>
<path d="M0 0 C0.66 0 1.32 0 2 0 C3.33838733 2.45570175 4.67086232 4.91429916 6 7.375 C6.57234375 8.42300781 6.57234375 8.42300781 7.15625 9.4921875 C10 14.7734375 10 14.7734375 10 17 C10.66 17 11.32 17 12 17 C12.33 16.01 12.66 15.02 13 14 C13.33 14.66 13.66 15.32 14 16 C14.33 14.35 14.66 12.7 15 11 C15.66 11 16.32 11 17 11 C17.12117188 11.61746094 17.24234375 12.23492187 17.3671875 12.87109375 C18.50074568 18.5999224 19.71369966 24.30352707 21 30 C21.66 30 22.32 30 23 30 C23.66 31.65 24.32 33.3 25 35 C24.01 35 23.02 35 22 35 C18.8110489 29.83169994 16.73982995 24.81261371 15 19 C14.01 19.33 13.02 19.66 12 20 C12 22.31 12 24.62 12 27 C10.35 27.33 8.7 27.66 7 28 C6.92523437 27.26136719 6.85046875 26.52273437 6.7734375 25.76171875 C5.73564155 17.75441081 3.27094803 11.82277232 -1 5 C-0.34 5 0.32 5 1 5 C0.67 3.35 0.34 1.7 0 0 Z " fill="#364983" transform="translate(16,38)"/>
<path d="M0 0 C0.66 0 1.32 0 2 0 C2 16.83 2 33.66 2 51 C-2.3799407 48.81002965 -2.99436794 47.85388712 -5.1875 43.6875 C-5.69667969 42.74261719 -6.20585938 41.79773437 -6.73046875 40.82421875 C-10.58169313 32.25672574 -10.33296027 20.79343676 -7.3125 12 C-5.41704279 7.48732786 -3.1575241 3.73917328 0 0 Z M-1 4 C-7.40070799 13.71536034 -8.48986159 22.61681783 -7 34 C-5.26879718 41.64566034 -5.26879718 41.64566034 0 47 C0 32.81 0 18.62 0 4 C-0.33 4 -0.66 4 -1 4 Z " fill="#E5CCDE" transform="translate(112,20)"/>
<path d="M0 0 C0.66 0 1.32 0 2 0 C1.72783284 8.16501479 -1.12582464 13.8990579 -5 21 C-5.34933594 21.76183594 -5.69867188 22.52367188 -6.05859375 23.30859375 C-7 25 -7 25 -9.125 25.75 C-10.053125 25.87375 -10.053125 25.87375 -11 26 C-11 26.66 -11 27.32 -11 28 C-13.31 28.33 -15.62 28.66 -18 29 C-18.598125 28.0925 -19.19625 27.185 -19.8125 26.25 C-21.071483 24.37951098 -22.36573513 22.52976912 -23.75 20.75 C-25 19 -25 19 -25 17 C-22.39619281 18.11591737 -20.93900464 19.06671367 -19 21.1875 C-17.21021511 23.20245385 -17.21021511 23.20245385 -15.0625 23.0625 C-12.00878732 21.48937529 -10.13439716 19.68324214 -8 17 C-7.99364754 14.36462492 -7.99364754 14.36462492 -9 12 C-9.33 11.01 -9.66 10.02 -10 9 C-8.02 8.34 -6.04 7.68 -4 7 C-4 7.66 -4 8.32 -4 9 C-3.01 9 -2.02 9 -1 9 C-0.67 6.03 -0.34 3.06 0 0 Z " fill="#596BA5" transform="translate(65,50)"/>
<path d="M0 0 C2.1459547 1.61072835 2.90657975 2.49443156 3.3984375 5.15625 C3.39070313 5.9296875 3.38296875 6.703125 3.375 7.5 C3.38273437 8.2734375 3.39046875 9.046875 3.3984375 9.84375 C2.9040804 12.51909429 2.1764752 13.40024058 0 15 C-3.5 15.4375 -3.5 15.4375 -7 15 C-9.85576764 12.69696158 -9.98181881 11.14544949 -10.4375 7.5 C-10 4 -10 4 -8.375 1.5625 C-5.31881548 -0.44814771 -3.59350675 -0.53520313 0 0 Z " fill="#FAEEED" transform="translate(37,102)"/>
<path d="M0 0 C2.4375 1.8125 2.4375 1.8125 4 4 C4 4.99 4 5.98 4 7 C3.01 6.67 2.02 6.34 1 6 C1 5.34 1 4.68 1 4 C-3.0100934 3.82135369 -3.0100934 3.82135369 -7 4 C-9.18939909 5.78107249 -9.18939909 5.78107249 -9.265625 8.09375 C-9.26046875 8.8878125 -9.2553125 9.681875 -9.25 10.5 C-9.25773437 11.69109375 -9.25773437 11.69109375 -9.265625 12.90625 C-9.18939909 15.21892751 -9.18939909 15.21892751 -7 17 C-3.41656024 17.16677282 -3.41656024 17.16677282 0 17 C0.66 15.35 1.32 13.7 2 12 C0.02 12 -1.96 12 -4 12 C-4 11.34 -4 10.68 -4 10 C-1.03 10 1.94 10 5 10 C5 13.3 5 16.6 5 20 C2.92002174 20.2765289 0.8356692 20.52030075 -1.25 20.75 C-2.41015625 20.88921875 -3.5703125 21.0284375 -4.765625 21.171875 C-8 21 -8 21 -10.359375 19.203125 C-13.34102251 15.19919835 -13.70918479 10.85082398 -13 6 C-9.37591558 0.32226775 -6.66016759 -0.57415238 0 0 Z " fill="#BA4345" transform="translate(78,99)"/>
<path d="M0 0 C2.75329021 1.79562405 4.52627461 3.05254922 6 6 C6.64078211 10.5770151 6.75569675 14.6878794 4 18.5625 C0.65716323 21.27855487 -0.87871501 21.84388963 -5.06640625 21.53515625 C-8.32885442 20.63221605 -9.96413421 18.59110191 -12 16 C-13.53214888 12.93570224 -13.22938548 10.3834358 -13 7 C-10.09572989 0.77656406 -6.76606661 -0.69993793 0 0 Z M-8.375 4.5625 C-10.6085569 7.91283535 -10.49398209 10.0481433 -10 14 C-9.11670357 16.53958234 -9.11670357 16.53958234 -7 18 C-2.37983612 18.63751438 -2.37983612 18.63751438 1.6953125 16.75390625 C3.34529514 14.53581581 3.40242938 13.24293779 3.375 10.5 C3.38273437 9.7265625 3.39046875 8.953125 3.3984375 8.15625 C2.90657975 5.49443156 2.1459547 4.61072835 0 3 C-3.59350675 2.46479687 -5.31881548 2.55185229 -8.375 4.5625 Z " fill="#B6393D" transform="translate(37,99)"/>
<path d="M0 0 C0.66 0 1.32 0 2 0 C2 7.92 2 15.84 2 24 C3.32 23.67 4.64 23.34 6 23 C7.15316726 29.34241995 7.09507063 35.56688704 7 42 C4.69 42 2.38 42 0 42 C0 28.14 0 14.28 0 0 Z " fill="#394E88" transform="translate(70,51)"/>
<path d="M0 0 C4.12525613 1.32775025 6.10178139 2.85519085 8.6875 6.3125 C9.26886719 7.07175781 9.85023437 7.83101562 10.44921875 8.61328125 C14.58625753 14.98036108 15.13859498 21.41769174 15.0625 28.875 C15.05347656 30.02742188 15.04445313 31.17984375 15.03515625 32.3671875 C15.02355469 33.23601563 15.01195313 34.10484375 15 35 C13.140625 36.0546875 13.140625 36.0546875 11 37 C8.75 36.125 8.75 36.125 7 35 C7.99 34.34 8.98 33.68 10 33 C4.08332063 25.26466919 -1.87830483 17.57517029 -8 10 C-6.27200079 6.23055056 -4.01169351 3.85724769 -1 1 C-0.67 0.67 -0.34 0.34 0 0 Z M-1.5078125 3.3125 C-2.04148437 3.869375 -2.57515625 4.42625 -3.125 5 C-3.66382813 5.556875 -4.20265625 6.11375 -4.7578125 6.6875 C-5.16773438 7.120625 -5.57765625 7.55375 -6 8 C-4.53099499 12.62178184 -1.85007025 15.80861957 1.3125 19.375 C4.40115853 22.92821286 7.43890371 26.43786554 10.125 30.3125 C10.74375 31.199375 11.3625 32.08625 12 33 C12.33 33 12.66 33 13 33 C13.5262394 20.38974469 12.48256776 13.06760175 3.83984375 3.65234375 C1.58159487 1.62423488 0.82582552 1.2811467 -1.5078125 3.3125 Z " fill="#EACEE0" transform="translate(48,18)"/>
<path d="M0 0 C0.78503906 0.08507812 1.57007812 0.17015625 2.37890625 0.2578125 C4.4375 0.875 4.4375 0.875 6.4375 3.875 C6.4375 4.865 6.4375 5.855 6.4375 6.875 C5.4475 6.875 4.4575 6.875 3.4375 6.875 C3.1075 5.885 2.7775 4.895 2.4375 3.875 C0.1275 3.875 -2.1825 3.875 -4.5625 3.875 C-4.5625 4.865 -4.5625 5.855 -4.5625 6.875 C-3.49708984 7.29072266 -3.49708984 7.29072266 -2.41015625 7.71484375 C-1.49105469 8.07707031 -0.57195312 8.43929687 0.375 8.8125 C1.29152344 9.17214844 2.20804688 9.53179687 3.15234375 9.90234375 C5.4375 10.875 5.4375 10.875 6.4375 11.875 C6.90438008 17.24412091 6.90438008 17.24412091 5.203125 19.54296875 C2.40509901 21.65386889 -0.06950893 21.34479239 -3.46484375 21.234375 C-5.5625 20.875 -5.5625 20.875 -7.625 19.0625 C-8.5625 16.875 -8.5625 16.875 -8.5625 13.875 C-7.5725 13.875 -6.5825 13.875 -5.5625 13.875 C-5.2325 14.865 -4.9025 15.855 -4.5625 16.875 C-1.9225 16.875 0.7175 16.875 3.4375 16.875 C3.4375 15.885 3.4375 14.895 3.4375 13.875 C2.72722656 13.59785156 2.01695313 13.32070312 1.28515625 13.03515625 C0.36605469 12.67292969 -0.55304688 12.31070313 -1.5 11.9375 C-2.41652344 11.57785156 -3.33304687 11.21820313 -4.27734375 10.84765625 C-6.5625 9.875 -6.5625 9.875 -7.5625 8.875 C-8.02818929 3.51957312 -8.02818929 3.51957312 -6.33203125 1.171875 C-4.00574337 -0.53304239 -2.82615784 -0.36316361 0 0 Z " fill="#B5343B" transform="translate(112.5625,99.125)"/>
<path d="M0 0 C0.99 0.33 1.98 0.66 3 1 C2.34 1 1.68 1 1 1 C1.33 10.57 1.66 20.14 2 30 C2.33 26.04 2.66 22.08 3 18 C3.99 18 4.98 18 6 18 C6.18451025 29.52164009 6.18451025 29.52164009 5 35 C4.01 34.67 3.02 34.34 2 34 C1.67 34.99 1.34 35.98 1 37 C0.34 37 -0.32 37 -1 37 C-1.33 37.66 -1.66 38.32 -2 39 C-2.66 39 -3.32 39 -4 39 C-4 35.7 -4 32.4 -4 29 C-4.99 29.33 -5.98 29.66 -7 30 C-6.67 26.7 -6.34 23.4 -6 20 C-4 22 -4 22 -1 32 C-0.67 21.44 -0.34 10.88 0 0 Z " fill="#7384B7" transform="translate(69,10)"/>
<path d="M0 0 C3 1 3 1 5 3 C4.01 3.33 3.02 3.66 2 4 C2 7.96 2 11.92 2 16 C2.66 16 3.32 16 4 16 C4 14.68 4 13.36 4 12 C4.66 12 5.32 12 6 12 C6 27.51 6 43.02 6 59 C5.34 59 4.68 59 4 59 C3.9727384 56.95840905 3.95348655 54.91671037 3.9375 52.875 C3.92589844 51.73804688 3.91429688 50.60109375 3.90234375 49.4296875 C3.994673 46.1870844 4.38610094 43.18067388 5 40 C4.34 39.67 3.68 39.34 3 39 C3.144375 37.96875 3.28875 36.9375 3.4375 35.875 C4.2293822 29.60781804 4.58406166 23.30102341 5 17 C4.01 17 3.02 17 2 17 C2 20.96 2 24.92 2 29 C1.34 29.33 0.68 29.66 0 30 C0 20.1 0 10.2 0 0 Z " fill="#2D417E" transform="translate(70,11)"/>
<path d="M0 0 C-0.33 0.99 -0.66 1.98 -1 3 C-1.33 2.34 -1.66 1.68 -2 1 C-4.05352387 0.45613203 -4.05352387 0.45613203 -6.4375 0.25 C-7.64212891 0.10304688 -7.64212891 0.10304688 -8.87109375 -0.046875 C-11.22033547 -0.24057778 -11.22033547 -0.24057778 -13 2 C-13.16681109 5.08347826 -13.16681109 5.08347826 -13 8 C-11.93458984 8.36351563 -11.93458984 8.36351563 -10.84765625 8.734375 C-9.92855469 9.06953125 -9.00945312 9.4046875 -8.0625 9.75 C-7.14597656 10.07484375 -6.22945312 10.3996875 -5.28515625 10.734375 C-3 12 -3 12 -2.12109375 14.078125 C-2.08113281 14.71234375 -2.04117188 15.3465625 -2 16 C-3 17 -3 17 -4.84765625 17.09765625 C-6.8984375 17.06510417 -8.94921875 17.03255208 -11 17 C-11.33 15.68 -11.66 14.36 -12 13 C-13.32 13.33 -14.64 13.66 -16 14 C-16 13.34 -16 12.68 -16 12 C-15.34 12 -14.68 12 -14 12 C-14.66 9.36 -15.32 6.72 -16 4 C-20.29 3.67 -24.58 3.34 -29 3 C-29 2.67 -29 2.34 -29 2 C-25.37 2 -21.74 2 -18 2 C-17.67 0.68 -17.34 -0.64 -17 -2 C-10.35219909 -3.26624779 -5.73370799 -4.04732329 0 0 Z " fill="#FBE6E7" transform="translate(119,100)"/>
<path d="M0 0 C3.8955211 3.10641412 7.12041415 6.10161268 10.1875 10.0625 C11.16783203 11.31740234 11.16783203 11.31740234 12.16796875 12.59765625 C13.7894569 14.7239147 15.40116416 16.85666898 17 19 C17.66 18.01 18.32 17.02 19 16 C19 16.99 19 17.98 19 19 C20.65 18.67 22.3 18.34 24 18 C23.67 18.99 23.34 19.98 23 21 C21.68 21 20.36 21 19 21 C19.515625 21.556875 20.03125 22.11375 20.5625 22.6875 C22 25 22 25 22.0625 27.375 C20.60174538 30.98392319 18.33655724 33.92148893 15 36 C11.47447612 35.77748173 9.79846136 34.18465016 7.5 31.625 C-0.44023352 21.96011361 -0.53748925 11.89941485 0 0 Z M1 3 C0.22761316 14.0923333 2.75527316 22.64153219 9.4375 31.5390625 C11.15608037 33.38285734 11.15608037 33.38285734 15 34 C17.97 30.535 17.97 30.535 21 27 C16.84451556 21.40050049 12.58290929 15.91281873 8.1875 10.5 C7.60291016 9.77296875 7.01832031 9.0459375 6.41601562 8.296875 C5.85978516 7.61109375 5.30355469 6.9253125 4.73046875 6.21875 C3.97866333 5.2896582 3.97866333 5.2896582 3.21166992 4.34179688 C2.81181885 3.89900391 2.41196777 3.45621094 2 3 C1.67 3 1.34 3 1 3 Z " fill="#EFDAEB" transform="translate(36,38)"/>
<path d="M0 0 C1 1 1 1 1.0625 3.5625 C1.041875 4.366875 1.02125 5.17125 1 6 C-0.32 6 -1.64 6 -3 6 C-3 6.99 -3 7.98 -3 9 C-1.02 9 0.96 9 3 9 C2.125 13.875 2.125 13.875 1 15 C-5.3509145 15.47043811 -5.3509145 15.47043811 -7.703125 13.765625 C-9.33825862 11.53947923 -9.40241352 10.24135228 -9.375 7.5 C-9.38273437 6.7265625 -9.39046875 5.953125 -9.3984375 5.15625 C-8.40362006 -0.22746791 -4.8502301 -0.42175914 0 0 Z " fill="#FAF0F0" transform="translate(77,102)"/>
<path d="M0 0 C4.62 0 9.24 0 14 0 C14 0.66 14 1.32 14 2 C10.37 2 6.74 2 3 2 C3 3.98 3 5.96 3 8 C6.3 8 9.6 8 13 8 C13 8.99 13 9.98 13 11 C9.7 11 6.4 11 3 11 C3 12.98 3 14.96 3 17 C6.63 17 10.26 17 14 17 C14 17.66 14 18.32 14 19 C9.38 19 4.76 19 0 19 C0 12.73 0 6.46 0 0 Z " fill="#AB3438" transform="translate(87,100)"/>
<path d="M0 0 C0 0.99 0 1.98 0 3 C-0.639375 3.268125 -1.27875 3.53625 -1.9375 3.8125 C-4.33131686 4.88667752 -4.33131686 4.88667752 -5 8 C-6 9 -7 10 -8 11 C-9.00496852 14.01490557 -9.10335303 16.04181692 -9.0625 19.1875 C-9.04896484 20.53908203 -9.04896484 20.53908203 -9.03515625 21.91796875 C-9.02355469 22.60503906 -9.01195312 23.29210937 -9 24 C-9.66 24 -10.32 24 -11 24 C-11.66 24.99 -12.32 25.98 -13 27 C-15.37571496 22.39705226 -15.55632178 18.06073363 -15 13 C-13.16108509 7.48325526 -9.55861354 4.37227556 -5 1 C-3 0 -3 0 0 0 Z " fill="#51659B" transform="translate(26,13)"/>
<path d="M0 0 C10.02272727 -0.47727273 10.02272727 -0.47727273 13.6875 1.3125 C15.86295508 5.76700325 15.68397695 10.1533246 15 15 C13.6875 17.6875 13.6875 17.6875 11 19 C7.26581176 19.30625717 3.76174544 19.17913074 0 19 C0 12.73 0 6.46 0 0 Z M2 2 C2 6.95 2 11.9 2 17 C7.38791049 17.59470548 7.38791049 17.59470548 12 15.4375 C13.38885542 12.05216491 13.45310904 9.62487235 13 6 C11.58333333 3.41666667 11.58333333 3.41666667 9 2 C6.69 2 4.38 2 2 2 Z " fill="#AF3436" transform="translate(47,100)"/>
<path d="M0 0 C1.32 1.32 2.64 2.64 4 4 C3.34 4 2.68 4 2 4 C2 14.56 2 25.12 2 36 C2.66 36 3.32 36 4 36 C4.33 35.01 4.66 34.02 5 33 C5.66 33 6.32 33 7 33 C7 32.01 7 31.02 7 30 C7.66 30 8.32 30 9 30 C8.1660246 38.33975397 5.98008386 42.01991614 0 48 C0 32.16 0 16.32 0 0 Z " fill="#BF3137" transform="translate(78,23)"/>
<path d="M0 0 C0.103125 0.5775 0.20625 1.155 0.3125 1.75 C1.09764466 4.31956433 2.377478 5.88366695 4 8 C4 8.66 4 9.32 4 10 C3.195625 10.28875 2.39125 10.5775 1.5625 10.875 C-1.1326468 11.73262568 -1.1326468 11.73262568 -2 14 C-2.66 14 -3.32 14 -4 14 C-4.33 14.99 -4.66 15.98 -5 17 C-6.33332095 14.3333581 -5.67102033 12.83319697 -5 10 C-7.27404729 12.27404729 -6.96998139 17.23146402 -7.40234375 20.3125 C-7.59957031 21.199375 -7.79679687 22.08625 -8 23 C-8.66 23.33 -9.32 23.66 -10 24 C-10.36201399 16.75972026 -9.68435484 9.80478429 -7 3 C-6.01 2.67 -5.02 2.34 -4 2 C-4.33 3.98 -4.66 5.96 -5 8 C-4.34 8 -3.68 8 -3 8 C-2.814375 6.8553125 -2.814375 6.8553125 -2.625 5.6875 C-2 3 -2 3 0 0 Z " fill="#2E4184" transform="translate(40,24)"/>
<path d="M0 0 C0.33 0 0.66 0 1 0 C1 14.19 1 28.38 1 43 C-2.76687864 39.23312136 -3.67652988 37.85272378 -5 33 C-4.34 33 -3.68 33 -3 33 C-2.67 34.32 -2.34 35.64 -2 37 C-1.34 37 -0.68 37 0 37 C0 28.09 0 19.18 0 10 C-0.99 10.99 -1.98 11.98 -3 13 C-3.66 13 -4.32 13 -5 13 C-5 18.61 -5 24.22 -5 30 C-5.33 30 -5.66 30 -6 30 C-6.69895391 18.35076812 -6.60918089 10.03179242 0 0 Z " fill="#BA3539" transform="translate(111,24)"/>
<path d="M0 0 C4.21814817 3.9700218 7.61227103 8.30840284 11 13 C10.34 13 9.68 13 9 13 C9 14.32 9 15.64 9 17 C6.69 17.33 4.38 17.66 2 18 C-0.1583195 11.92972642 -0.20852314 6.40629424 0 0 Z " fill="#BB4E57" transform="translate(37,41)"/>
<path d="M0 0 C3.08137704 3.08137704 2.97281954 6.07260266 3.09765625 10.33203125 C3.08605469 11.48058594 3.07445312 12.62914062 3.0625 13.8125 C3.05347656 14.97394531 3.04445313 16.13539062 3.03515625 17.33203125 C3.02355469 18.21246094 3.01195312 19.09289062 3 20 C-0.9252025 16.29909479 -3.94580156 12.45040344 -7 8 C-6.34 7.67 -5.68 7.34 -5 7 C-4.34444881 4.47266765 -4.34444881 4.47266765 -4 2 C-2.68 2 -1.36 2 0 2 C0 1.34 0 0.68 0 0 Z " fill="#96445A" transform="translate(58,31)"/>
<path d="M0 0 C3.65920553 2.57614258 6.56253176 4.68759529 8 9 C7.38125 9.2475 6.7625 9.495 6.125 9.75 C3.62519797 11.22047178 3.16683978 12.41403076 2 15 C0.99406757 13.8803014 -0.0045849 12.7540588 -1 11.625 C-1.8353125 10.68527344 -1.8353125 10.68527344 -2.6875 9.7265625 C-4 8 -4 8 -4 6 C-3.34 5.34 -2.68 4.68 -2 4 C-2.99 3.67 -3.98 3.34 -5 3 C-5 2.34 -5 1.68 -5 1 C-5.66 0.67 -6.32 0.34 -7 0 C-4.14256951 -1.42871525 -3.0411049 -1.01370163 0 0 Z " fill="#2C4185" transform="translate(51,43)"/>
<path d="M0 0 C4.99911924 0.47610659 7.97832683 2.03162219 12 5 C11.01 5.495 11.01 5.495 10 6 C10 6.66 10 7.32 10 8 C10.66 8 11.32 8 12 8 C12 8.66 12 9.32 12 10 C10.25 10.6875 10.25 10.6875 8 11 C5.75 9.5625 5.75 9.5625 4 8 C4 8.99 4 9.98 4 11 C3.34 11 2.68 11 2 11 C2 12.32 2 13.64 2 15 C1.34 15 0.68 15 0 15 C0 11.04 0 7.08 0 3 C0.66 2.67 1.32 2.34 2 2 C1.34 1.34 0.68 0.68 0 0 Z " fill="#586DA4" transform="translate(72,12)"/>
<path d="M0 0 C0.99 0 1.98 0 3 0 C3 5.61 3 11.22 3 17 C6.3 17 9.6 17 13 17 C13 17.99 13 18.98 13 20 C8.71 20 4.42 20 0 20 C0 13.4 0 6.8 0 0 Z " fill="#BB4B4D" transform="translate(10,100)"/>
<path d="M0 0 C2 2 2 2 2.04345703 4.06298828 C1.94919434 4.89040527 1.85493164 5.71782227 1.7578125 6.5703125 C1.66113281 7.46621094 1.56445312 8.36210938 1.46484375 9.28515625 C1.29662109 10.69087891 1.29662109 10.69087891 1.125 12.125 C1.02058594 13.06988281 0.91617188 14.01476563 0.80859375 14.98828125 C0.5487593 17.3267913 0.27883941 19.66369244 0 22 C-0.99 21.67 -1.98 21.34 -3 21 C-3.33 19.35 -3.66 17.7 -4 16 C-4.99 16.99 -5.98 17.98 -7 19 C-6.67 14.38 -6.34 9.76 -6 5 C-5.34 5.33 -4.68 5.66 -4 6 C-4 7.32 -4 8.64 -4 10 C-3.34 10 -2.68 10 -2 10 C-1.855625 8.72125 -1.71125 7.4425 -1.5625 6.125 C-1.29357254 3.74307106 -1.07773654 2.15547309 0 0 Z " fill="#314582" transform="translate(103,29)"/>
<path d="M0 0 C0.33 0 0.66 0 1 0 C1 6.27 1 12.54 1 19 C9.18275501 18.86462747 9.18275501 18.86462747 16 15 C16 16.32 16 17.64 16 19 C12.40537669 21.25998595 9.43404325 21.20868087 5.25 21.125 C4.07953125 21.10695313 2.9090625 21.08890625 1.703125 21.0703125 C0.81109375 21.04710938 -0.0809375 21.02390625 -1 21 C-1.33 19.35 -1.66 17.7 -2 16 C-2.66 16 -3.32 16 -4 16 C-3.8864371 14.35333797 -3.75882619 12.70763918 -3.625 11.0625 C-3.55539063 10.14597656 -3.48578125 9.22945312 -3.4140625 8.28515625 C-3.27742188 7.53105469 -3.14078125 6.77695313 -3 6 C-2.34 5.67 -1.68 5.34 -1 5 C-0.34444881 2.47266765 -0.34444881 2.47266765 0 0 Z " fill="#F4BBBA" transform="translate(46,100)"/>
<path d="M0 0 C2.31 0 4.62 0 7 0 C7.33 1.32 7.66 2.64 8 4 C8.99 4 9.98 4 11 4 C11.33 3.01 11.66 2.02 12 1 C12 5 12 5 11 7 C11.66 7.66 12.32 8.32 13 9 C13.56410256 15.20512821 13.56410256 15.20512821 11.625 17.9375 C10 19 10 19 8 19 C8.33 18.46375 8.66 17.9275 9 17.375 C10.388057 14.50785479 10.388057 14.50785479 10 9 C6.37 7.35 2.74 5.7 -1 4 C-0.67 2.68 -0.34 1.36 0 0 Z " fill="#FBE4E3" transform="translate(108,102)"/>
<path d="M0 0 C2.60380719 1.11591737 4.06099536 2.06671367 6 4.1875 C6.66 4.785625 7.32 5.38375 8 6 C11.07435378 5.81367553 12.37371096 4.75085936 15 3 C15 3.66 15 4.32 15 5 C16.32 4.67 17.64 4.34 19 4 C18.67 5.32 18.34 6.64 18 8 C16.68 8.33 15.36 8.66 14 9 C14 9.66 14 10.32 14 11 C11.69 11.33 9.38 11.66 7 12 C6.401875 11.0925 5.80375 10.185 5.1875 9.25 C3.928517 7.37951098 2.63426487 5.52976912 1.25 3.75 C0 2 0 2 0 0 Z " fill="#5A6DA2" transform="translate(40,67)"/>
<path d="M0 0 C0.53625 0.391875 1.0725 0.78375 1.625 1.1875 C0.8 1.8475 -0.025 2.5075 -0.875 3.1875 C-3.56959894 6.41549142 -3.56959894 6.41549142 -3.75 10.25 C-3.37156024 14.29308499 -3.37156024 14.29308499 -2.375 18.1875 C-4.375 18.1875 -4.375 18.1875 -5.96875 16.99609375 C-7.7799726 14.66666024 -7.76949368 13.17340426 -7.875 10.25 C-8.02098067 6.217284 -8.70585686 4.24707631 -11.375 1.1875 C-10.385 0.8575 -9.395 0.5275 -8.375 0.1875 C-8.375 0.8475 -8.375 1.5075 -8.375 2.1875 C-7.4675 1.65125 -6.56 1.115 -5.625 0.5625 C-2.375 -0.8125 -2.375 -0.8125 0 0 Z " fill="#F9DFE0" transform="translate(69.375,98.8125)"/>
<path d="M0 0 C3.09323386 3.09323386 4.72297854 6.83705433 6 11 C5.3125 13.875 5.3125 13.875 4 16 C3.67 16.99 3.34 17.98 3 19 C2.01 19.33 1.02 19.66 0 20 C-2.125 13.25 -2.125 13.25 -1 11 C-0.7724985 9.12943209 -0.59037189 7.25314042 -0.4375 5.375 C-0.35371094 4.37210938 -0.26992188 3.36921875 -0.18359375 2.3359375 C-0.12300781 1.56507812 -0.06242187 0.79421875 0 0 Z " fill="#DFE6F3" transform="translate(31,59)"/>
<path d="M0 0 C0.66 0 1.32 0 2 0 C5.4495336 6.26767935 6.38688804 11.95707764 6.375 19 C6.37628906 19.754021 6.37757812 20.50804199 6.37890625 21.28491211 C6.27021883 26.72978117 6.27021883 26.72978117 4 29 C1.97441119 25.65060119 1.78261013 23.13037449 1.875 19.25 C1.90207031 17.77273437 1.90207031 17.77273437 1.9296875 16.265625 C1.95289062 15.51796875 1.97609375 14.7703125 2 14 C2.66 14 3.32 14 4 14 C3.71125 12.72125 3.4225 11.4425 3.125 10.125 C2.96257812 9.40570313 2.80015625 8.68640625 2.6328125 7.9453125 C2.09525572 5.79280036 2.09525572 5.79280036 0 4 C0 2.68 0 1.36 0 0 Z " fill="#8799C4" transform="translate(87,26)"/>
<path d="M0 0 C1.32 0 2.64 0 4 0 C4 2.64 4 5.28 4 8 C3.44570313 8.20496094 2.89140625 8.40992188 2.3203125 8.62109375 C1.59585937 8.89050781 0.87140625 9.15992188 0.125 9.4375 C-0.59429687 9.70433594 -1.31359375 9.97117187 -2.0546875 10.24609375 C-4.03648845 10.97916854 -4.03648845 10.97916854 -6 12 C-6.99 11.34 -7.98 10.68 -9 10 C-8.01 9.67 -7.02 9.34 -6 9 C-5.26676204 6.98491642 -5.26676204 6.98491642 -5 5 C-3.68 4.67 -2.36 4.34 -1 4 C-0.67 2.68 -0.34 1.36 0 0 Z " fill="#675684" transform="translate(27,12)"/>
<path d="M0 0 C0.66 0 1.32 0 2 0 C3.15316726 6.34241995 3.09507063 12.56688704 3 19 C0.69 19 -1.62 19 -4 19 C-4 17.35 -4 15.7 -4 14 C-2.68 14 -1.36 14 0 14 C0 9.38 0 4.76 0 0 Z " fill="#354A86" transform="translate(74,74)"/>
<path d="M0 0 C0.66 0 1.32 0 2 0 C0.67771571 5.68582243 -1.40255302 7.7161093 -6 11 C-6.99 11.33 -7.98 11.66 -9 12 C-9.33 12.99 -9.66 13.98 -10 15 C-11.98 15 -13.96 15 -16 15 C-16 12.69 -16 10.38 -16 8 C-14.02 7.67 -12.04 7.34 -10 7 C-10 7.99 -10 8.98 -10 10 C-4.35171152 7.04641412 -4.35171152 7.04641412 -0.5 2.1875 C-0.335 1.465625 -0.17 0.74375 0 0 Z " fill="#A7647F" transform="translate(26,66)"/>
<path d="M0 0 C2.99371503 2.99371503 2.29256348 5.80494229 2.32226562 9.8984375 C2.31743164 11.43371094 2.31743164 11.43371094 2.3125 13 C2.32861328 14.02351563 2.34472656 15.04703125 2.36132812 16.1015625 C2.36197266 17.07867187 2.36261719 18.05578125 2.36328125 19.0625 C2.36626221 19.96097656 2.36924316 20.85945313 2.37231445 21.78515625 C2.24945068 22.51605469 2.12658691 23.24695313 2 24 C1.01 24.66 0.02 25.32 -1 26 C-1 25.01 -1 24.02 -1 23 C-1.99 23.33 -2.98 23.66 -4 24 C-3.505 19.545 -3.505 19.545 -3 15 C-2.67 15 -2.34 15 -2 15 C-1.67 16.65 -1.34 18.3 -1 20 C-1.01160156 19.31035156 -1.02320312 18.62070312 -1.03515625 17.91015625 C-1.09342124 11.84227348 -0.78903948 6.01642604 0 0 Z " fill="#374980" transform="translate(93,33)"/>
<path d="M0 0 C3.82601307 1.45124634 5.22329124 3.35774704 7 7 C7 7.99 7 8.98 7 10 C2.25 9.125 2.25 9.125 0 8 C-1.32 8 -2.64 8 -4 8 C-2.25 2.25 -2.25 2.25 0 0 Z " fill="#C8282D" transform="translate(48,20)"/>
<path d="M0 0 C2.31 0 4.62 0 7 0 C7 0.33 7 0.66 7 1 C5.02 1 3.04 1 1 1 C1 5.29 1 9.58 1 14 C2.32 13.67 3.64 13.34 5 13 C6.29660434 10.50965614 6.29660434 10.50965614 7 8 C7.66 8 8.32 8 9 8 C8.67 5.69 8.34 3.38 8 1 C9.5 2.0625 9.5 2.0625 11 4 C11.3898913 7.57400356 11.37020241 10.09763163 10 13.4375 C6.81039012 15.92938272 3.96543085 15.26002825 0 15 C0 10.05 0 5.1 0 0 Z " fill="#F9CACA" transform="translate(49,102)"/>
<path d="M0 0 C0.33 0 0.66 0 1 0 C1 3.3 1 6.6 1 10 C1.66 7.69 2.32 5.38 3 3 C3.33 3 3.66 3 4 3 C4 6.3 4 9.6 4 13 C4.99 13.33 5.98 13.66 7 14 C7.33 14.99 7.66 15.98 8 17 C7.01 17 6.02 17 5 17 C5 17.99 5 18.98 5 20 C4.34 20 3.68 20 3 20 C2.67 18.02 2.34 16.04 2 14 C1.67 14.99 1.34 15.98 1 17 C0.34 17 -0.32 17 -1 17 C-1.02691685 14.54159395 -1.04679802 12.08348118 -1.0625 9.625 C-1.07087891 8.92632812 -1.07925781 8.22765625 -1.08789062 7.5078125 C-1.11328125 2.2265625 -1.11328125 2.2265625 0 0 Z " fill="#798CC2" transform="translate(96,37)"/>
<path d="M0 0 C2.93200474 2.85276137 5.64315404 5.65079784 8 9 C6.02 11.31 4.04 13.62 2 16 C-2.59037956 14.85240511 -3.33669182 13.70960782 -6 10 C-5.34 9.67 -4.68 9.34 -4 9 C-4 9.66 -4 10.32 -4 11 C-2.35 10.67 -0.7 10.34 1 10 C1.33 11.32 1.66 12.64 2 14 C2 13.01 2 12.02 2 11 C2.99 11 3.98 11 5 11 C5 9.68 5 8.36 5 7 C4.01 7 3.02 7 2 7 C1.34 4.69 0.68 2.38 0 0 Z " fill="#C1373A" transform="translate(49,56)"/>
<path d="M0 0 C0.66 0 1.32 0 2 0 C1.34 1.98 0.68 3.96 0 6 C0.66 6.33 1.32 6.66 2 7 C0.6875 9.5 0.6875 9.5 -1 12 C-1.99 12 -2.98 12 -4 12 C-4.66 14.64 -5.32 17.28 -6 20 C-6.66 20 -7.32 20 -8 20 C-8.66 17.69 -9.32 15.38 -10 13 C-9.01 13 -8.02 13 -7 13 C-6.2884375 11.329375 -6.2884375 11.329375 -5.5625 9.625 C-4.74693537 7.73289006 -3.92143645 5.84287291 -3 4 C-2.34 4 -1.68 4 -1 4 C-0.67 2.68 -0.34 1.36 0 0 Z " fill="#6E81B4" transform="translate(107,19)"/>
<path d="M0 0 C0.66 0 1.32 0 2 0 C3.59226248 2.1700263 4.95731902 4.44632228 6.3671875 6.73828125 C8.03149717 9.04362885 9.64993084 10.42820049 12 12 C12.66 11.67 13.32 11.34 14 11 C14 12.32 14 13.64 14 15 C12.23046875 15.66796875 12.23046875 15.66796875 10 16 C8.11328125 14.92578125 8.11328125 14.92578125 6.3125 13.3125 C5.71050781 12.79300781 5.10851562 12.27351563 4.48828125 11.73828125 C2.81134767 9.77965804 2.45164475 8.50859206 2 6 C1.34490497 3.99617991 0.68025637 1.99541868 0 0 Z " fill="#6377A6" transform="translate(103,65)"/>
<path d="M0 0 C2.4375 1.3125 2.4375 1.3125 3.25 3.4375 C3.311875 4.05625 3.37375 4.675 3.4375 5.3125 C2.57125 4.879375 1.705 4.44625 0.8125 4 C-2.37127281 2.97732566 -2.37127281 2.97732566 -4.26171875 4.22265625 C-6.45704331 6.0458919 -8.27724904 7.74199808 -9.5625 10.3125 C-10.2225 10.3125 -10.8825 10.3125 -11.5625 10.3125 C-11.8925 11.6325 -12.2225 12.9525 -12.5625 14.3125 C-13.2225 14.3125 -13.8825 14.3125 -14.5625 14.3125 C-14.09526389 9.68932169 -12.44431311 7.72779698 -9.125 4.5625 C-8.32191406 3.78390625 -7.51882812 3.0053125 -6.69140625 2.203125 C-3.23369471 -0.86757663 -3.23369471 -0.86757663 0 0 Z " fill="#33447E" transform="translate(50.5625,10.6875)"/>
<path d="M0 0 C0.33 0 0.66 0 1 0 C1.12375 1.11375 1.2475 2.2275 1.375 3.375 C1.6465813 7.03103677 1.6465813 7.03103677 4 9 C4.66 8.01 5.32 7.02 6 6 C9.125 5.8125 9.125 5.8125 12 6 C11.125 10.875 11.125 10.875 10 12 C3.65880587 12.46971808 3.65880587 12.46971808 1.28515625 10.77734375 C-0.37742903 8.47802368 -0.30952349 7.11904033 -0.1875 4.3125 C-0.16042969 3.50425781 -0.13335937 2.69601563 -0.10546875 1.86328125 C-0.07066406 1.24839844 -0.03585938 0.63351563 0 0 Z " fill="#FDDADD" transform="translate(68,105)"/>
<path d="M0 0 C3.7798128 1.50516035 5.60457771 3.68301614 8.0625 6.875 C9.06990234 8.17050781 9.06990234 8.17050781 10.09765625 9.4921875 C11.73911597 11.65608307 13.37524596 13.8235382 15 16 C15.66 15.01 16.32 14.02 17 13 C17 13.99 17 14.98 17 16 C18.65 15.67 20.3 15.34 22 15 C21.67 15.99 21.34 16.98 21 18 C19.68 18 18.36 18 17 18 C17.33 19.32 17.66 20.64 18 22 C13.68381816 17.87077142 9.93517917 13.39595233 6.1875 8.75 C5.59001953 8.0178125 4.99253906 7.285625 4.37695312 6.53125 C0 1.12883929 0 1.12883929 0 0 Z " fill="#DFBFD7" transform="translate(38,41)"/>
<path d="M0 0 C0.66 0 1.32 0 2 0 C2 4.29 2 8.58 2 13 C0.02 13.99 0.02 13.99 -2 15 C-4.25 14.125 -4.25 14.125 -6 13 C-5.01 12.34 -4.02 11.68 -3 11 C-4.65 8.69 -6.3 6.38 -8 4 C-7.67 3.34 -7.34 2.68 -7 2 C-4.03 5.465 -4.03 5.465 -1 9 C-0.67 6.03 -0.34 3.06 0 0 Z " fill="#E0C0D6" transform="translate(61,40)"/>
<path d="M0 0 C0.68707555 2.49064888 1 4.37886292 1 7 C0.34 7 -0.32 7 -1 7 C-1.12117188 7.99902344 -1.24234375 8.99804688 -1.3671875 10.02734375 C-1.53476562 11.31769531 -1.70234375 12.60804687 -1.875 13.9375 C-2.03742187 15.22527344 -2.19984375 16.51304688 -2.3671875 17.83984375 C-2.57601562 18.88269531 -2.78484375 19.92554688 -3 21 C-3.66 21.33 -4.32 21.66 -5 22 C-5.36660766 14.66784676 -4.46160477 7.95572724 -2 1 C-1.34 0.67 -0.68 0.34 0 0 Z " fill="#354A81" transform="translate(35,26)"/>
<path d="M0 0 C2.01136276 2.55991624 3.62845496 5.04590299 5 8 C4.34 8 3.68 8 3 8 C4.98 10.97 6.96 13.94 9 17 C7.35 17.33 5.7 17.66 4 18 C2 11.25 2 11.25 2 9 C1.34 9 0.68 9 0 9 C-1.125 2.25 -1.125 2.25 0 0 Z " fill="#5D6E9C" transform="translate(37,59)"/>
<path d="M0 0 C0.66 0 1.32 0 2 0 C3.33838733 2.45570175 4.67086232 4.91429916 6 7.375 C6.57234375 8.42300781 6.57234375 8.42300781 7.15625 9.4921875 C10 14.7734375 10 14.7734375 10 17 C9.34 17 8.68 17 8 17 C7.01 15.02 6.02 13.04 5 11 C4.01 11 3.02 11 2 11 C1.01 9.02 0.02 7.04 -1 5 C-0.34 5 0.32 5 1 5 C0.67 3.35 0.34 1.7 0 0 Z " fill="#7889BA" transform="translate(16,38)"/>
<path d="M0 0 C0.66 0 1.32 0 2 0 C1.01 2.97 0.02 5.94 -1 9 C-1.66 9 -2.32 9 -3 9 C-3 9.66 -3 10.32 -3 11 C-3.66 11 -4.32 11 -5 11 C-5.33 11.99 -5.66 12.98 -6 14 C-6.99 14 -7.98 14 -9 14 C-8.40888676 10.67954906 -7.32679853 8.91217346 -5.0625 6.4375 C-3.14863371 4.32613399 -1.59443774 2.39165661 0 0 Z " fill="#2C4584" transform="translate(86,63)"/>
<path d="M0 0 C4.55256268 1.51752089 6.0160087 5.13559544 8.1875 9.25 C8.455625 9.8275 8.72375 10.405 9 11 C9.33 11.66 9.66 12.32 10 13 C10.039992 14.99960012 10.04346799 17.00047242 10 19 C9.34 19 8.68 19 8 19 C7.75765625 18.34773438 7.5153125 17.69546875 7.265625 17.0234375 C4.99095413 11.04549569 4.99095413 11.04549569 1.75 5.5625 C0 3 0 3 0 0 Z " fill="#364881" transform="translate(81,21)"/>
<path d="M0 0 C0.33 0 0.66 0 1 0 C1 1.98 1 3.96 1 6 C4.3 6 7.6 6 11 6 C11 6.99 11 7.98 11 9 C7.7 9 4.4 9 1 9 C1 10.98 1 12.96 1 15 C0.67 15 0.34 15 0 15 C-0.75612577 9.76528314 -1.2063366 5.22745859 0 0 Z " fill="#C04648" transform="translate(89,102)"/>
<path d="M0 0 C2 2 2 2 2.125 5.125 C2.08375 6.07375 2.0425 7.0225 2 8 C2.66 8 3.32 8 4 8 C4 7.01 4 6.02 4 5 C4.99 5 5.98 5 7 5 C7.33 6.98 7.66 8.96 8 11 C7.01 11 6.02 11 5 11 C5 10.34 5 9.68 5 9 C4.34 9 3.68 9 3 9 C3.66 10.65 4.32 12.3 5 14 C4.01 14 3.02 14 2 14 C0.09391902 10.78817851 -0.22266247 8.46117397 -0.125 4.75 C-0.09792969 3.41195312 -0.09792969 3.41195312 -0.0703125 2.046875 C-0.04710938 1.37140625 -0.02390625 0.6959375 0 0 Z " fill="#334680" transform="translate(97,49)"/>
<path d="M0 0 C5.79217196 4.99325169 7.21719225 10.79983616 8.08203125 18.08203125 C8 20 8 20 6 22 C5.81824219 21.21496094 5.63648437 20.42992188 5.44921875 19.62109375 C3.81630707 12.63774062 3.81630707 12.63774062 1.3125 5.9375 C0 3 0 3 0 0 Z " fill="#344781" transform="translate(61,22)"/>
<path d="M0 0 C0.66 0 1.32 0 2 0 C2.12375 1.093125 2.2475 2.18625 2.375 3.3125 C2.75464801 7.07381802 2.75464801 7.07381802 5 10 C5.33 8.68 5.66 7.36 6 6 C7.40907283 8.81814566 6.50872691 10.17277204 5.5625 13.125 C5.27503906 14.03507812 4.98757812 14.94515625 4.69140625 15.8828125 C4.46324219 16.58148438 4.23507813 17.28015625 4 18 C2.44596314 15.06836714 1.30198368 12.16634776 0.3125 9 C0.04050781 8.154375 -0.23148437 7.30875 -0.51171875 6.4375 C-1.02468085 3.8767932 -0.84216387 2.44171002 0 0 Z " fill="#F0F3F8" transform="translate(92,21)"/>
<path d="M0 0 C0.33 0 0.66 0 1 0 C1 4.95 1 9.9 1 15 C0.01 14.01 -0.98 13.02 -2 12 C-2.433125 12.825 -2.86625 13.65 -3.3125 14.5 C-4.1478125 15.7375 -4.1478125 15.7375 -5 17 C-5.99 17 -6.98 17 -8 17 C-7.67386719 16.443125 -7.34773438 15.88625 -7.01171875 15.3125 C-4.14954957 10.31425765 -1.88056396 5.44373777 0 0 Z " fill="#E5EFFA" transform="translate(68,57)"/>
<path d="M0 0 C0.33 0.66 0.66 1.32 1 2 C1.66 1.67 2.32 1.34 3 1 C2.34 2.32 1.68 3.64 1 5 C0.34 4.67 -0.32 4.34 -1 4 C-1.103125 4.721875 -1.20625 5.44375 -1.3125 6.1875 C-2.05986932 9.24491993 -3.28045189 11.38329635 -5 14 C-5.33 13.34 -5.66 12.68 -6 12 C-5.0625 9.375 -5.0625 9.375 -4 7 C-4.66 6.67 -5.32 6.34 -6 6 C-3.84615385 0 -3.84615385 0 0 0 Z " fill="#7080B1" transform="translate(92,56)"/>
<path d="M0 0 C0.66 0 1.32 0 2 0 C2.99 3.96 3.98 7.92 5 12 C2.03 11.505 2.03 11.505 -1 11 C-1.99 11.495 -1.99 11.495 -3 12 C-2.01 8.04 -1.02 4.08 0 0 Z " fill="#E1E8F6" transform="translate(95,54)"/>
<path d="M0 0 C3.875 1.75 3.875 1.75 5 4 C5.14716542 5.80843663 5.2210887 7.62331566 5.25 9.4375 C5.27578125 10.40558594 5.3015625 11.37367187 5.328125 12.37109375 C5 15 5 15 3.484375 16.84765625 C2.99453125 17.22792969 2.5046875 17.60820313 2 18 C1.67 17.01 1.34 16.02 1 15 C1.33 14.34 1.66 13.68 2 13 C2.27843054 8.17387057 1.75645727 4.50092174 0 0 Z " fill="#B93941" transform="translate(57,100)"/>
<path d="M0 0 C0 0.66 0 1.32 0 2 C0.66 2.33 1.32 2.66 2 3 C1.2575 3.226875 0.515 3.45375 -0.25 3.6875 C-4.75662454 5.83838898 -7.01203987 9.5270897 -9 14 C-9.29397316 9.00245633 -9.0979156 6.01581652 -6 2 C-3 0 -3 0 0 0 Z " fill="#C55053" transform="translate(33,99)"/>
<path d="M0 0 C1.9375 0.375 1.9375 0.375 4 1 C4.33 1.66 4.66 2.32 5 3 C7.97 3 10.94 3 14 3 C12.35 4.65 10.7 6.3 9 8 C5.56801397 6.76067171 2.69674368 5.49698489 0 3 C0 2.01 0 1.02 0 0 Z " fill="#3E5086" transform="translate(42,75)"/>
<path d="M0 0 C3.78125 0.7578125 3.78125 0.7578125 5.75 2.9375 C7 5 7 5 7 7 C7.66 7 8.32 7 9 7 C12.12940055 10.97193147 12.29162929 14.04230204 12 19 C10.48476668 16.72715003 9.3802405 14.75639723 8.25 12.3125 C6.03244633 7.78499458 3.1351049 3.92933147 0 0 Z " fill="#3A4C84" transform="translate(51,18)"/>
<path d="M0 0 C-0.33 0.99 -0.66 1.98 -1 3 C-1.33 2.34 -1.66 1.68 -2 1 C-4.05352387 0.45613203 -4.05352387 0.45613203 -6.4375 0.25 C-7.64212891 0.10304688 -7.64212891 0.10304688 -8.87109375 -0.046875 C-11.22033547 -0.24057778 -11.22033547 -0.24057778 -13 2 C-14.32 2 -15.64 2 -17 2 C-17 0.68 -17 -0.64 -17 -2 C-10.35219909 -3.26624779 -5.73370799 -4.04732329 0 0 Z " fill="#FAE8E6" transform="translate(119,100)"/>
<path d="M0 0 C1.66666667 0 3.33333333 0 5 0 C6.4783226 2.95664519 6.06032783 5.74229737 6 9 C4.35 9.33 2.7 9.66 1 10 C0.67 6.7 0.34 3.4 0 0 Z " fill="#6A7CAE" transform="translate(22,56)"/>
<path d="M0 0 C1.32 0.33 2.64 0.66 4 1 C4.33 2.65 4.66 4.3 5 6 C3.02 6.33 1.04 6.66 -1 7 C-1.66 6.01 -2.32 5.02 -3 4 C-2.01 2.68 -1.02 1.36 0 0 Z " fill="#B290AC" transform="translate(40,34)"/>
<path d="M0 0 C0.99 0 1.98 0 3 0 C3.33 0.99 3.66 1.98 4 3 C6.31 3.33 8.62 3.66 11 4 C11.33 4.99 11.66 5.98 12 7 C8.96666668 7.22893082 6.02681166 7.34883468 3 7 C0.9375 5.1875 0.9375 5.1875 0 3 C0 2.01 0 1.02 0 0 Z " fill="#BD494D" transform="translate(104,113)"/>
<path d="M0 0 C2 1 2 1 3.25 4.375 C4.53846792 7.6262118 4.95969856 7.97550305 8.1875 9.9375 C9.115625 10.288125 10.04375 10.63875 11 11 C11 11.33 11 11.66 11 12 C7.0239197 12.46233492 5.43148796 12.30954571 2.125 9.9375 C-0.47048413 6.34962488 -0.4247346 4.3322929 0 0 Z " fill="#B5393B" transform="translate(25,108)"/>
<path d="M0 0 C0.66 0.33 1.32 0.66 2 1 C1.83628906 1.66386719 1.67257813 2.32773437 1.50390625 3.01171875 C0.89396143 6.62883337 0.89204487 10.15860708 0.9375 13.8125 C0.94201172 14.50537109 0.94652344 15.19824219 0.95117188 15.91210938 C0.96286844 17.60811068 0.98080076 19.30406703 1 21 C0.34 21 -0.32 21 -1 21 C-1 19.35 -1 17.7 -1 16 C-1.66 16 -2.32 16 -3 16 C-3.33 16.99 -3.66 17.98 -4 19 C-3.7834375 17.95392578 -3.7834375 17.95392578 -3.5625 16.88671875 C-2.77054326 12.82244076 -2.14548207 8.73426528 -1.5 4.64453125 C-1 2 -1 2 0 0 Z " fill="#91A3CE" transform="translate(34,33)"/>
<path d="M0 0 C1.98 0 3.96 0 6 0 C6 4.62 6 9.24 6 14 C4.46333657 10.92667314 3.13288446 7.93664064 1.875 4.75 C1.52179688 3.85796875 1.16859375 2.9659375 0.8046875 2.046875 C0.53914063 1.37140625 0.27359375 0.6959375 0 0 Z " fill="#E8EFFA" transform="translate(63,23)"/>
<path d="M0 0 C2 3 2 3 1.75 4.98046875 C-0.19267771 10.69720265 -2.73535705 15.64651032 -7 20 C-7.99 20.33 -8.98 20.66 -10 21 C-10 20.34 -10 19.68 -10 19 C-8.88625 17.9790625 -8.88625 17.9790625 -7.75 16.9375 C-3.21204538 12.59292413 -0.79530823 6.16363877 0 0 Z " fill="#EACCDE" transform="translate(87,52)"/>
<path d="M0 0 C0 0.99 0 1.98 0 3 C-1.61992165 3.86375896 -3.24611861 4.71575854 -4.875 5.5625 C-6.23238281 6.27599609 -6.23238281 6.27599609 -7.6171875 7.00390625 C-8.40351563 7.33261719 -9.18984375 7.66132813 -10 8 C-10.66 7.67 -11.32 7.34 -12 7 C-10.87720538 6.01830524 -9.75168527 5.03972702 -8.625 4.0625 C-7.68527344 3.24458984 -7.68527344 3.24458984 -6.7265625 2.41015625 C-4.23340655 0.37389087 -3.29576226 0 0 0 Z " fill="#36457F" transform="translate(26,13)"/>
<path d="M0 0 C2.5 2.125 2.5 2.125 4 4 C3.34 4.66 2.68 5.32 2 6 C1.319375 5.175 0.63875 4.35 -0.0625 3.5 C-2.81519049 0.71909133 -2.81519049 0.71909133 -6.5 0.4375 C-10.46655624 1.07498225 -12.14979467 2.23616453 -15 5 C-15 3.35 -15 1.7 -15 0 C-9.47188101 -2.07304462 -5.50483754 -2.38821585 0 0 Z " fill="#FBE8E7" transform="translate(40,99)"/>
<path d="M0 0 C0 0.66 0 1.32 0 2 C0.66 2 1.32 2 2 2 C1.67 3.32 1.34 4.64 1 6 C0.01 6 -0.98 6 -2 6 C-2.66 5.34 -3.32 4.68 -4 4 C-4.99 4.495 -4.99 4.495 -6 5 C-6.66 4.67 -7.32 4.34 -8 4 C-8 3.01 -8 2.02 -8 1 C-5.29889598 -0.35055201 -2.99210994 0 0 0 Z " fill="#6C456D" transform="translate(63,53)"/>
<path d="M0 0 C0.33 0 0.66 0 1 0 C1.59222907 3.01264352 2.05823431 5.92416977 2 9 C0.0625 11.5625 0.0625 11.5625 -2 13 C-3.98 12.34 -5.96 11.68 -8 11 C-8 10.67 -8 10.34 -8 10 C-7.030625 9.690625 -6.06125 9.38125 -5.0625 9.0625 C-2.15934208 8.30476658 -2.15934208 8.30476658 -1 7 C-0.63239269 4.67182036 -0.29758419 2.3381615 0 0 Z " fill="#C54C4F" transform="translate(40,107)"/>
<path d="M0 0 C2.31 0 4.62 0 7 0 C7 1.65 7 3.3 7 5 C4.69 5 2.38 5 0 5 C0 3.35 0 1.7 0 0 Z " fill="#B03742" transform="translate(70,88)"/>
<path d="M0 0 C1.32 0.33 2.64 0.66 4 1 C4 4.96 4 8.92 4 13 C3.01 12.67 2.02 12.34 1 12 C0.67 8.04 0.34 4.08 0 0 Z " fill="#2B4181" transform="translate(27,56)"/>
<path d="M0 0 C0.66 0 1.32 0 2 0 C1.56744475 5.40694067 0.41778487 8.75366122 -3 13 C-3.66 13 -4.32 13 -5 13 C-4.32116957 9.88452559 -3.25893098 7.14862279 -1.9375 4.25 C-1.57527344 3.45078125 -1.21304688 2.6515625 -0.83984375 1.828125 C-0.56269531 1.22484375 -0.28554687 0.6215625 0 0 Z " fill="#364A80" transform="translate(91,60)"/>
<path d="M0 0 C2.475 0.99 2.475 0.99 5 2 C5 3.32 5 4.64 5 6 C3.35 6.33 1.7 6.66 0 7 C0 6.34 0 5.68 0 5 C-0.66 5 -1.32 5 -2 5 C-1.125 1.125 -1.125 1.125 0 0 Z " fill="#D22428" transform="translate(45,60)"/>
<path d="M0 0 C0.66 0 1.32 0 2 0 C2.33 2.97 2.66 5.94 3 9 C2.34 9 1.68 9 1 9 C0.01 10.485 0.01 10.485 -1 12 C-1.66 9.69 -2.32 7.38 -3 5 C-2.01 4.67 -1.02 4.34 0 4 C0 2.68 0 1.36 0 0 Z " fill="#6778AC" transform="translate(14,28)"/>
<path d="M0 0 C2.475 0.99 2.475 0.99 5 2 C5.33 1.34 5.66 0.68 6 0 C8.39073445 3.82517513 8.55966552 7.59665524 9 12 C7.5 10.625 7.5 10.625 6 9 C6 8.34 6 7.68 6 7 C5.34 7 4.68 7 4 7 C2.02 3.535 2.02 3.535 0 0 Z " fill="#8091C0" transform="translate(54,18)"/>
<path d="M0 0 C0.99 0.99 1.98 1.98 3 3 C2.34 3 1.68 3 1 3 C1 4.32 1 5.64 1 7 C-0.65 6.67 -2.3 6.34 -4 6 C-3.67 4.35 -3.34 2.7 -3 1 C-2.01 0.67 -1.02 0.34 0 0 Z " fill="#84496D" transform="translate(45,51)"/>
<path d="M0 0 C2.1446143 2.1446143 2.44564603 3.01739998 3.125 5.875 C3.29257813 6.55304687 3.46015625 7.23109375 3.6328125 7.9296875 C4 10 4 10 4 14 C3.34 14 2.68 14 2 14 C2 12.35 2 10.7 2 9 C1.01 9.33 0.02 9.66 -1 10 C-0.67 6.7 -0.34 3.4 0 0 Z " fill="#8696C7" transform="translate(63,30)"/>
<path d="M0 0 C1 1 1 1 1.0625 4.0625 C1.041875 5.031875 1.02125 6.00125 1 7 C-0.98 7.99 -0.98 7.99 -3 9 C-2.67 7.02 -2.34 5.04 -2 3 C-3.32 2.01 -4.64 1.02 -6 0 C-3.49749232 -1.25125384 -2.59701335 -0.83774624 0 0 Z " fill="#B2373B" transform="translate(118,110)"/>
<path d="M0 0 C1.45945288 0.08708669 2.91765868 0.19526907 4.375 0.3125 C5.59316406 0.39951172 5.59316406 0.39951172 6.8359375 0.48828125 C9 1 9 1 11 4 C11 4.99 11 5.98 11 7 C10.01 7 9.02 7 8 7 C7.67 6.01 7.34 5.02 7 4 C6.21625 3.896875 5.4325 3.79375 4.625 3.6875 C2 3 2 3 0 0 Z " fill="#BC4D52" transform="translate(108,99)"/>
<path d="M0 0 C3.99996286 1.33332095 4.83782337 3.4957827 7 7 C5.35 7.66 3.7 8.32 2 9 C0 3.375 0 3.375 0 0 Z " fill="#C53536" transform="translate(38,43)"/>
<path d="M0 0 C0.99 0 1.98 0 3 0 C2.34 3.63 1.68 7.26 1 11 C0.01 10.67 -0.98 10.34 -2 10 C-1.85950482 8.52031676 -1.71245174 7.04125484 -1.5625 5.5625 C-1.48128906 4.73878906 -1.40007813 3.91507813 -1.31640625 3.06640625 C-1 1 -1 1 0 0 Z " fill="#2C4281" transform="translate(18,23)"/>
<path d="M0 0 C1.0326802 2.78823655 1.04509293 3.8677274 0.0625 6.75 C-0.288125 7.4925 -0.63875 8.235 -1 9 C-1.99 9 -2.98 9 -4 9 C-4 6.36 -4 3.72 -4 1 C-2.02 1.99 -2.02 1.99 0 3 C0 2.01 0 1.02 0 0 Z " fill="#4961A0" transform="translate(74,42)"/>
<path d="M0 0 C1.485 0.99 1.485 0.99 3 2 C3.36328125 4.3125 3.36328125 4.3125 3.3125 7 C3.30863281 7.886875 3.30476563 8.77375 3.30078125 9.6875 C3 12 3 12 1 14 C0.67 9.38 0.34 4.76 0 0 Z " fill="#7285B6" transform="translate(90,41)"/>
<path d="M0 0 C6.34375 -0.48798077 6.34375 -0.48798077 9.4375 1.8125 C11 4 11 4 11 7 C10.01 6.67 9.02 6.34 8 6 C8 5.34 8 4.68 8 4 C7.05125 3.896875 6.1025 3.79375 5.125 3.6875 C2 3 2 3 0 0 Z " fill="#BF5054" transform="translate(71,99)"/>
<path d="M0 0 C2.64 0 5.28 0 8 0 C8 2.64 8 5.28 8 8 C7.34 8 6.68 8 6 8 C6 6.02 6 4.04 6 2 C4.02 2 2.04 2 0 2 C0 1.34 0 0.68 0 0 Z " fill="#B13437" transform="translate(74,109)"/>
<path d="M0 0 C0.25 7.625 0.25 7.625 -2 11 C-2.66 11 -3.32 11 -4 11 C-3.8864371 9.35333797 -3.75882619 7.70763918 -3.625 6.0625 C-3.55539063 5.14597656 -3.48578125 4.22945313 -3.4140625 3.28515625 C-3.27742188 2.53105469 -3.14078125 1.77695313 -3 1 C-1 0 -1 0 0 0 Z " fill="#FCDBDD" transform="translate(46,105)"/>
<path d="M0 0 C0 1.98 0 3.96 0 6 C-2.38564077 5.42415568 -4.66682784 4.77772405 -7 4 C-7 3.34 -7 2.68 -7 2 C-4.35261084 0.5393715 -3.10551666 0 0 0 Z " fill="#F8F5F9" transform="translate(39,108)"/>
<path d="M0 0 C4.2742558 1.5830577 6.26531794 4.50568404 9 8 C8.01 8.33 7.02 8.66 6 9 C4.99406757 7.8803014 3.9954151 6.7540588 3 5.625 C2.443125 4.99851562 1.88625 4.37203125 1.3125 3.7265625 C0 2 0 2 0 0 Z " fill="#30457F" transform="translate(40,67)"/>
<path d="M0 0 C0.99 0 1.98 0 3 0 C1.79743762 3.42267755 0.66526328 5.55684199 -2 8 C-2.99 9.485 -2.99 9.485 -4 11 C-4.66 9.02 -5.32 7.04 -6 5 C-4.02 4.67 -2.04 4.34 0 4 C0 2.68 0 1.36 0 0 Z " fill="#C03238" transform="translate(46,54)"/>
<path d="M0 0 C1.32 0 2.64 0 4 0 C4 2.31 4 4.62 4 7 C2.68 7 1.36 7 0 7 C0 4.69 0 2.38 0 0 Z " fill="#BD2D31" transform="translate(27,12)"/>
<path d="M0 0 C0.33 0 0.66 0 1 0 C1.12375 1.11375 1.2475 2.2275 1.375 3.375 C1.6465813 7.03103677 1.6465813 7.03103677 4 9 C6.60280568 8.67958603 6.60280568 8.67958603 9 8 C9 8.66 9 9.32 9 10 C5.625 10.625 5.625 10.625 2 11 C0 9 0 9 -0.1953125 6.8359375 C-0.17210938 6.02382812 -0.14890625 5.21171875 -0.125 4.375 C-0.10695313 3.55773437 -0.08890625 2.74046875 -0.0703125 1.8984375 C-0.04710938 1.27195312 -0.02390625 0.64546875 0 0 Z " fill="#F8E5E4" transform="translate(68,105)"/>
<path d="M0 0 C0 2.31 0 4.62 0 7 C-1.32 6.67 -2.64 6.34 -4 6 C-4.33 4.35 -4.66 2.7 -5 1 C-1.125 0 -1.125 0 0 0 Z " fill="#C52F32" transform="translate(60,40)"/>
<path d="M0 0 C0.66 0 1.32 0 2 0 C0.7874262 3.72433382 -0.50859979 7.37802806 -2 11 C-2.66 11 -3.32 11 -4 11 C-4 8.33333333 -4 5.66666667 -4 3 C-3.01 3.33 -2.02 3.66 -1 4 C-0.67 2.68 -0.34 1.36 0 0 Z " fill="#8293C0" transform="translate(39,21)"/>
<path d="M0 0 C0.66 0 1.32 0 2 0 C0.9958194 2.16285052 0.02595514 3.96863754 -1.5 5.8125 C-3.47945449 8.69920447 -4.15691525 11.62766102 -5 15 C-5.33 15 -5.66 15 -6 15 C-6.7440423 9.04766161 -4.36965168 5.62912805 -1 1 C-0.67 0.67 -0.34 0.34 0 0 Z " fill="#E1ECF8" transform="translate(16,15)"/>
<path d="M0 0 C3.73487777 0.4979837 5.81237635 0.87491756 9 3 C9 3.66 9 4.32 9 5 C6.03 5 3.06 5 0 5 C0 4.34 0 3.68 0 3 C0.66 2.67 1.32 2.34 2 2 C1.34 1.34 0.68 0.68 0 0 Z " fill="#54669A" transform="translate(72,12)"/>
<path d="M0 0 C0.33 0.66 0.66 1.32 1 2 C1.99 2 2.98 2 4 2 C4.33 4.31 4.66 6.62 5 9 C4.34 9 3.68 9 3 9 C2.67 7.35 2.34 5.7 2 4 C-2.29 3.67 -6.58 3.34 -11 3 C-11 2.67 -11 2.34 -11 2 C-7.37 2 -3.74 2 0 2 C0 1.34 0 0.68 0 0 Z " fill="#F7C5C7" transform="translate(101,100)"/>
<path d="M0 0 C0.33 0.66 0.66 1.32 1 2 C1.66 2 2.32 2 3 2 C3 2.66 3 3.32 3 4 C0.69 4.33 -1.62 4.66 -4 5 C-4 3.68 -4 2.36 -4 1 C-2 0 -2 0 0 0 Z " fill="#697DB5" transform="translate(51,74)"/>
<path d="M0 0 C0.66 0 1.32 0 2 0 C3.5078125 2.1875 3.5078125 2.1875 5.125 5 C5.66382812 5.928125 6.20265625 6.85625 6.7578125 7.8125 C7.37269531 8.8953125 7.37269531 8.8953125 8 10 C6.68 10.33 5.36 10.66 4 11 C0.71428571 3.57142857 0.71428571 3.57142857 0 0 Z " fill="#7D91C3" transform="translate(103,65)"/>
<path d="M0 0 C1.485 0.99 1.485 0.99 3 2 C6.27751904 2.17877377 9.13319906 2.23427052 12.3125 1.375 C12.869375 1.25125 13.42625 1.1275 14 1 C14.66 1.66 15.32 2.32 16 3 C12.71480525 4.09506492 10.26336585 4.09960608 6.8125 4.0625 C5.18248047 4.04896484 5.18248047 4.04896484 3.51953125 4.03515625 C2.68808594 4.02355469 1.85664062 4.01195313 1 4 C0.67 2.68 0.34 1.36 0 0 Z " fill="#F9D6D7" transform="translate(67,117)"/>
<path d="M0 0 C0.66 0 1.32 0 2 0 C1.01 2.97 0.02 5.94 -1 9 C-2.32 8.34 -3.64 7.68 -5 7 C-4.21654285 5.82780457 -3.42297164 4.66236332 -2.625 3.5 C-2.18414062 2.8503125 -1.74328125 2.200625 -1.2890625 1.53125 C-0.65097656 0.77328125 -0.65097656 0.77328125 0 0 Z " fill="#384986" transform="translate(86,63)"/>
<path d="M0 0 C2.64752004 2.57784846 4.94432065 4.91648098 7 8 C5.35 8.33 3.7 8.66 2 9 C0 2.25 0 2.25 0 0 Z " fill="#798BBC" transform="translate(39,68)"/>
<path d="M0 0 C0.99 0 1.98 0 3 0 C2.67 2.97 2.34 5.94 2 9 C1.34 9 0.68 9 0 9 C0 6.03 0 3.06 0 0 Z " fill="#7285BA" transform="translate(72,51)"/>
<path d="M0 0 C0.33 0.66 0.66 1.32 1 2 C0.67 2.66 0.34 3.32 0 4 C1.65 3.67 3.3 3.34 5 3 C4.34 4.98 3.68 6.96 3 9 C1.35 7.35 -0.3 5.7 -2 4 C-1.34 2.68 -0.68 1.36 0 0 Z " fill="#C0383A" transform="translate(44,24)"/>
<path d="M0 0 C1.32 0.66 2.64 1.32 4 2 C4.3669579 8.48292295 4.3669579 8.48292295 2.625 10.9375 C1 12 1 12 -1 12 C-0.67 11.46375 -0.34 10.9275 0 10.375 C1.24091523 7.42782633 1.20678166 5.17065216 1 2 C0.67 1.34 0.34 0.68 0 0 Z " fill="#F8D0D0" transform="translate(117,109)"/>
<path d="M0 0 C1.98 0 3.96 0 6 0 C6 1.32 6 2.64 6 4 C3.69 3.67 1.38 3.34 -1 3 C-0.67 2.01 -0.34 1.02 0 0 Z " fill="#F6F6F5" transform="translate(72,103)"/>
<path d="M0 0 C2 2 2 2 2.125 5.125 C2.08375 6.07375 2.0425 7.0225 2 8 C1.01 8.33 0.02 8.66 -1 9 C-1.80967438 6.08517222 -2.21845993 4.53886783 -1.0625 1.6875 C-0.711875 1.130625 -0.36125 0.57375 0 0 Z " fill="#EDF1F0" transform="translate(101,68)"/>
<path d="M0 0 C0.99 0.33 1.98 0.66 3 1 C3 3.97 3 6.94 3 10 C2.34 10 1.68 10 1 10 C-0.60725635 6.78548731 -0.05748185 3.56387464 0 0 Z " fill="#6677A6" transform="translate(116,38)"/>
<path d="M0 0 C0.66 0.66 1.32 1.32 2 2 C1.01 5.3 0.02 8.6 -1 12 C-3 8 -3 8 -2.625 5.75 C-2.41875 5.1725 -2.2125 4.595 -2 4 C-1.34 4 -0.68 4 0 4 C0 2.68 0 1.36 0 0 Z " fill="#E0E8F8" transform="translate(97,27)"/>
<path d="M0 0 C0.66 0 1.32 0 2 0 C3.38226016 2.76452033 3.09525387 5.0461363 3.0625 8.125 C3.05347656 9.22070312 3.04445313 10.31640625 3.03515625 11.4453125 C3.02355469 12.28835937 3.01195313 13.13140625 3 14 C2.67 14 2.34 14 2 14 C1.25073929 10.33694766 0.7619986 7.57644848 2 4 C1.01 3.67 0.02 3.34 -1 3 C-0.67 2.01 -0.34 1.02 0 0 Z " fill="#2D4181" transform="translate(116,11)"/>
<path d="M0 0 C0.66 0 1.32 0 2 0 C6 6.75 6 6.75 6 9 C3.5067466 8.00269864 2.22532561 7.34925469 0.75 5.0625 C0 3 0 3 0 0 Z " fill="#354783" transform="translate(101,65)"/>
<path d="M0 0 C0.33 0.99 0.66 1.98 1 3 C1.66 3 2.32 3 3 3 C3 4.98 3 6.96 3 9 C2.01 9.33 1.02 9.66 0 10 C0 6.7 0 3.4 0 0 Z " fill="#586AA7" transform="translate(71,57)"/>
<path d="M0 0 C0.99 0.33 1.98 0.66 3 1 C3.33 2.65 3.66 4.3 4 6 C1.5625 5.625 1.5625 5.625 -1 5 C-1.33 4.34 -1.66 3.68 -2 3 C-1.34 3 -0.68 3 0 3 C0 2.01 0 1.02 0 0 Z " fill="#D4232C" transform="translate(51,24)"/>
<path d="M0 0 C-1.47692308 4.67692308 -1.47692308 4.67692308 -4.125 6.3125 C-5.053125 6.6528125 -5.053125 6.6528125 -6 7 C-5.37162381 3.35541809 -4.14650034 0 0 0 Z " fill="#364885" transform="translate(113,18)"/>
<path d="M0 0 C2.625 0.625 2.625 0.625 5 2 C5.8125 4.125 5.8125 4.125 6 6 C-0.75 3.125 -0.75 3.125 -3 2 C-2.01 1.34 -1.02 0.68 0 0 Z " fill="#3C4983" transform="translate(48,10)"/>
<path d="M0 0 C0 0.66 0 1.32 0 2 C-1.98 2.66 -3.96 3.32 -6 4 C-6 2.68 -6 1.36 -6 0 C-3.50907189 -1.24546405 -2.58919267 -0.7767578 0 0 Z " fill="#31437F" transform="translate(22,72)"/>
<path d="M0 0 C4.455 0.99 4.455 0.99 9 2 C7.68 2.33 6.36 2.66 5 3 C2.6652039 3.66152556 0.33163378 4.32741333 -2 5 C-2 4.34 -2 3.68 -2 3 C-1.34 3 -0.68 3 0 3 C0 2.01 0 1.02 0 0 Z " fill="#FADBD9" transform="translate(105,109)"/>
<path d="M0 0 C2.31 0.33 4.62 0.66 7 1 C7 1.66 7 2.32 7 3 C3.37673261 4.2077558 2.35853631 3.54311128 -1 2 C-0.67 1.34 -0.34 0.68 0 0 Z " fill="#BD3F44" transform="translate(107,107)"/>
<path d="M0 0 C0.66 0 1.32 0 2 0 C2.33 1.32 2.66 2.64 3 4 C3.66 4 4.32 4 5 4 C5.33 5.98 5.66 7.96 6 10 C2.51668565 6.98112756 1.20842856 4.43090471 0 0 Z " fill="#BD3C42" transform="translate(106,57)"/>
<path d="M0 0 C0.33 1.32 0.66 2.64 1 4 C0.01 4.495 0.01 4.495 -1 5 C-1.99 4.67 -2.98 4.34 -4 4 C-4 3.34 -4 2.68 -4 2 C-4.66 1.67 -5.32 1.34 -6 1 C-4 0 -4 0 0 0 Z " fill="#26438B" transform="translate(50,42)"/>
<path d="M0 0 C1.65 0 3.3 0 5 0 C5 1.32 5 2.64 5 4 C3.35 4 1.7 4 0 4 C0 2.68 0 1.36 0 0 Z " fill="#B95066" transform="translate(40,36)"/>
<path d="M0 0 C1.125 1.75 1.125 1.75 2 4 C1.125 6.25 1.125 6.25 0 8 C-0.33 7.01 -0.66 6.02 -1 5 C-1.99 5 -2.98 5 -4 5 C-4 4.01 -4 3.02 -4 2 C-2.68 2 -1.36 2 0 2 C0 1.34 0 0.68 0 0 Z " fill="#C05764" transform="translate(58,31)"/>
<path d="M0 0 C0.103125 0.556875 0.20625 1.11375 0.3125 1.6875 C1.13133577 4.44176578 2.45853781 6.58727657 4 9 C3.34 9 2.68 9 2 9 C2 8.34 2 7.68 2 7 C0.68 6.67 -0.64 6.34 -2 6 C-1.125 1.125 -1.125 1.125 0 0 Z " fill="#384886" transform="translate(40,24)"/>
<path d="M0 0 C0 0.66 0 1.32 0 2 C-3.63 2 -7.26 2 -11 2 C-4.2 -1.4 -4.2 -1.4 0 0 Z " fill="#FAD8D5" transform="translate(58,98)"/>
<path d="M0 0 C1 4 1 4 -0.25 6.75 C-0.8275 7.4925 -1.405 8.235 -2 9 C-2.99 9 -3.98 9 -5 9 C-3.35 6.03 -1.7 3.06 0 0 Z " fill="#DBE2F1" transform="translate(65,65)"/>
<path d="M0 0 C2.475 0.495 2.475 0.495 5 1 C4.34 2.98 3.68 4.96 3 7 C2.01 6.34 1.02 5.68 0 5 C-0.1875 2.375 -0.1875 2.375 0 0 Z " fill="#3B4783" transform="translate(51,51)"/>
<path d="M0 0 C0.68707555 2.49064888 1 4.37886292 1 7 C-0.32 7 -1.64 7 -3 7 C-2.625 4.0625 -2.625 4.0625 -2 1 C-1.34 0.67 -0.68 0.34 0 0 Z " fill="#425689" transform="translate(35,26)"/>
<path d="M0 0 C1.2065625 0.0309375 1.2065625 0.0309375 2.4375 0.0625 C-2.3125 4.9375 -2.3125 4.9375 -4.5625 6.0625 C-3.48963568 0.08511307 -3.48963568 0.08511307 0 0 Z " fill="#E2EAF8" transform="translate(109.5625,11.9375)"/>
<path d="M0 0 C1.32 0.33 2.64 0.66 4 1 C0.535 3.97 0.535 3.97 -3 7 C-3 6.01 -3 5.02 -3 4 C-2.01 3.67 -1.02 3.34 0 3 C0 2.01 0 1.02 0 0 Z " fill="#DAE2F0" transform="translate(42,11)"/>
<path d="M0 0 C2.31 0.33 4.62 0.66 7 1 C6.67 1.66 6.34 2.32 6 3 C4.02 3 2.04 3 0 3 C0 2.01 0 1.02 0 0 Z " fill="#FAF5F5" transform="translate(91,112)"/>
<path d="M0 0 C2 1 4 2 6 3 C5.67 3.99 5.34 4.98 5 6 C3.0625 5.25 3.0625 5.25 1 4 C0.25 1.875 0.25 1.875 0 0 Z " fill="#E6EDFA" transform="translate(43,79)"/>
<path d="M0 0 C-1.25 1.5 -1.25 1.5 -3 3 C-4.32 3 -5.64 3 -7 3 C-6.67 2.01 -6.34 1.02 -6 0 C-3 -1 -3 -1 0 0 Z " fill="#35457C" transform="translate(23,77)"/>
<path d="M0 0 C0.99 0.99 1.98 1.98 3 3 C2.01 3.33 1.02 3.66 0 4 C0 4.99 0 5.98 0 7 C-0.66 7 -1.32 7 -2 7 C-2 5.35 -2 3.7 -2 2 C-1.34 2 -0.68 2 0 2 C0 1.34 0 0.68 0 0 Z " fill="#6475AD" transform="translate(101,50)"/>
<path d="M0 0 C0.66 0 1.32 0 2 0 C2 0.66 2 1.32 2 2 C3.65 1.67 5.3 1.34 7 1 C6.67 2.32 6.34 3.64 6 5 C4.125 4.75 4.125 4.75 2 4 C0.75 1.9375 0.75 1.9375 0 0 Z " fill="#BD363B" transform="translate(47,33)"/>
<path d="M0 0 C2.31 0 4.62 0 7 0 C7.33 0.66 7.66 1.32 8 2 C7.34 2 6.68 2 6 2 C6 2.66 6 3.32 6 4 C4.02 3.34 2.04 2.68 0 2 C0 1.34 0 0.68 0 0 Z " fill="#798ABB" transform="translate(76,16)"/>
<path d="M0 0 C0.66 0 1.32 0 2 0 C2.80967438 2.91482778 3.21845993 4.46113217 2.0625 7.3125 C1.5365625 8.1478125 1.5365625 8.1478125 1 9 C-0.4783226 6.04335481 -0.06032783 3.25770263 0 0 Z " fill="#F8C3C4" transform="translate(27,106)"/>
<path d="M0 0 C4.31392226 0.4793247 6.16569547 1.7457985 9 5 C8.34 5.66 7.68 6.32 7 7 C4.66666667 4.66666667 2.33333333 2.33333333 0 0 Z " fill="#FBDAD8" transform="translate(35,98)"/>
<path d="M0 0 C0.66 0 1.32 0 2 0 C2 2.31 2 4.62 2 7 C1.34 7 0.68 7 0 7 C-1.125 2.25 -1.125 2.25 0 0 Z " fill="#7C86C1" transform="translate(72,81)"/>
<path d="M0 0 C2.64 0.99 5.28 1.98 8 3 C7.67 3.66 7.34 4.32 7 5 C4.625 4.75 4.625 4.75 2 4 C0.6875 1.9375 0.6875 1.9375 0 0 Z " fill="#E6F0FA" transform="translate(112,80)"/>
<path d="M0 0 C0 3 0 3 -1 6 C-2.65 6.33 -4.3 6.66 -6 7 C-6 6.34 -6 5.68 -6 5 C-4.04072937 3.2856382 -2.04119788 1.61594832 0 0 Z " fill="#E7EDFB" transform="translate(57,77)"/>
<path d="M0 0 C0.99 0 1.98 0 3 0 C3.33 2.97 3.66 5.94 4 9 C1.3144406 6.3144406 0.93950026 3.62378672 0 0 Z " fill="#C3CFED" transform="translate(27,47)"/>
</svg>
